<svg xmlns="http://www.w3.org/2000/svg" id="Svg" width="256" height="256">
				<defs>
					<clipPath id="clipPath">
						
					<rect x="0" y="0" width="256" height="256"/></clipPath>
				<g fill="#666666" transform="matrix(0.3,0,0,0.3,-7.2,-7.2)" id="gSix8yvdt8aq5"><g transform="translate(0.000000,48.000000) scale(0.100000,-0.100000)"><path d="M230 430 c0 -21 -33 -29 -45 -10 -3 6 -18 10 -32 10 -21 0 -23 -2 -13 -15 13 -16 11 -18 -43 -30 -16 -3 -40 -17 -53 -30 -21 -21 -22 -27 -12 -50 13 -30 28 -33 28 -6 0 31 47 61 96 61 44 0 67 -16 43 -31 -8 -4 -24 -6 -37 -2 -25 6 -92 -39 -92 -63 0 -22 25 -17 59 12 17 14 36 24 43 23 42 -5 70 2 75 21 6 24 26 26 44 4 11 -14 11 -18 -4 -28 -12 -9 -13 -16 -5 -24 16 -16 2 -41 -31 -55 -22 -9 -27 -16 -21 -27 7 -12 14 -11 44 5 39 21 45 30 56 89 7 35 5 42 -16 59 -31 24 -31 47 0 47 29 0 42 -15 50 -60 10 -54 8 -72 -14 -115 -11 -21 -20 -45 -20 -52 0 -8 -16 -23 -35 -34 -42 -25 -45 -42 -8 -37 18 2 35 14 48 35 24 38 49 39 53 1 3 -22 -4 -31 -42 -53 -47 -28 -59 -45 -29 -45 9 0 36 21 61 46 38 41 43 51 39 79 -4 25 1 41 19 66 13 18 24 46 24 61 0 28 -13 37 -25 18 -12 -20 -25 -10 -25 19 0 16 -10 42 -23 58 -13 15 -26 36 -30 45 -6 18 -11 18 -69 -4 -22 -8 -28 -17 -28 -39 0 -16 -4 -29 -9 -29 -14 0 -20 25 -10 41 12 19 11 59 -1 59 -5 0 -10 -9 -10 -20z m190 -201 c0 -12 -7 -19 -20 -19 -22 0 -26 20 -8 38 15 15 28 6 28 -19z"/><path d="M130 251 c0 -14 5 -18 20 -14 24 6 26 19 4 27 -23 9 -24 8 -24 -13z"/><path d="M142 178 c3 -7 19 -22 36 -33 38 -24 40 -35 7 -35 -16 0 -32 11 -47 30 -25 34 -38 38 -38 13 1 -41 66 -87 108 -77 38 9 43 14 35 27 -5 7 -8 21 -8 31 0 11 -13 27 -30 37 -36 21 -68 24 -63 7z"/></g></g><g fill="#666666" transform="matrix(0.3,0,0,0.3,-7.2,-7.2)" id="gSix8yvdt8aq6"><g transform="translate(0.000000,48.000000) scale(0.100000,-0.100000)"><path d="M113 406 c-24 -25 -43 -47 -43 -50 0 -3 11 -6 24 -6 18 0 27 8 35 30 6 17 21 34 35 40 30 11 35 30 9 30 -10 0 -37 -20 -60 -44z"/><path d="M200 407 c0 -20 -9 -29 -40 -44 -22 -10 -42 -26 -45 -35 -4 -10 -15 -18 -26 -18 -10 0 -19 -4 -19 -9 0 -22 22 -20 70 5 54 28 80 23 80 -17 0 -11 7 -19 15 -19 9 0 15 9 15 25 0 29 15 32 67 13 24 -9 33 -18 33 -35 0 -25 -19 -30 -37 -12 -7 7 -20 8 -30 5 -16 -7 -15 -9 9 -22 15 -8 32 -30 39 -49 14 -38 24 -42 55 -20 18 12 20 20 14 59 -10 68 -92 138 -134 114 -24 -14 -41 4 -41 44 0 17 -6 33 -12 36 -8 2 -13 -6 -13 -21z m188 -191 c3 -13 -1 -17 -14 -14 -11 2 -20 11 -22 22 -3 13 1 17 14 14 11 -2 20 -11 22 -22z"/><path d="M397 323 c17 -16 40 -46 51 -68 21 -40 21 -40 22 -9 0 24 -9 39 -41 67 -22 21 -46 37 -52 37 -6 0 3 -12 20 -27z"/><path d="M148 270 c-28 -23 -43 -29 -62 -24 -31 7 -51 -3 -37 -20 6 -7 43 -13 93 -14 82 -2 83 -2 60 16 -18 14 -22 24 -17 45 4 15 5 27 3 27 -2 0 -20 -14 -40 -30z"/><path d="M245 163 c-27 -8 -62 -17 -77 -20 -33 -6 -42 -37 -21 -69 12 -19 24 -24 57 -24 77 1 161 57 112 76 -8 3 -12 13 -9 24 7 26 -6 29 -62 13z m45 -43 c0 -5 -9 -10 -21 -10 -11 0 -17 5 -14 10 3 6 13 10 21 10 8 0 14 -4 14 -10z m-64 -21 c3 -6 1 -16 -5 -22 -13 -13 -62 1 -69 21 -5 15 64 17 74 1z"/></g></g><g fill="#666666" transform="matrix(0.3,0,0,0.3,-7.2,-7.2)" id="gSix8yvdt8aq7"><g transform="translate(0.000000,48.000000) scale(0.100000,-0.100000)"><path d="M92 410 c-49 -20 -61 -42 -59 -108 0 -34 5 -62 9 -62 16 0 78 36 78 46 0 6 16 24 35 41 37 33 47 60 18 48 -10 -4 -26 -10 -35 -12 -10 -3 -18 -11 -18 -19 0 -13 -30 -34 -49 -34 -15 0 -14 33 1 48 7 7 20 12 29 12 16 0 29 19 29 41 0 11 -8 11 -38 -1z"/><path d="M258 404 c-16 -8 -28 -19 -28 -24 0 -20 51 -9 78 15 27 25 27 25 2 25 -14 -1 -37 -8 -52 -16z"/><path d="M348 378 c-2 -18 -9 -23 -31 -21 -17 1 -36 -6 -49 -19 -18 -18 -19 -23 -7 -47 10 -22 13 -23 17 -8 7 31 75 49 86 22 9 -25 -4 -43 -37 -51 -25 -5 -28 -8 -14 -16 33 -18 87 12 113 64 27 54 31 88 9 88 -9 0 -15 -9 -15 -25 0 -25 -19 -40 -40 -33 -6 2 -5 13 4 30 15 29 12 38 -15 38 -11 0 -19 -9 -21 -22z"/><path d="M176 306 c-4 -16 -16 -28 -31 -32 -14 -3 -25 -10 -25 -15 0 -5 -12 -28 -26 -50 -19 -30 -29 -38 -37 -30 -15 15 -27 14 -27 -2 0 -7 20 -31 44 -55 43 -42 43 -42 85 -27 36 12 43 12 47 0 3 -7 1 -23 -6 -34 -18 -35 12 -26 48 15 21 23 32 46 32 66 0 17 -4 27 -10 23 -5 -3 -10 -14 -10 -25 0 -22 -23 -33 -39 -17 -15 15 -14 25 9 54 25 33 26 75 1 90 -11 7 -21 22 -23 34 -4 32 -24 34 -32 5z m54 -65 c0 -11 -8 -22 -18 -25 -10 -3 -23 -19 -29 -36 -6 -16 -18 -30 -26 -30 -8 0 -17 -9 -20 -20 -6 -24 -29 -26 -47 -5 -10 12 -8 16 14 25 19 7 26 17 26 35 0 17 8 29 25 37 14 6 25 17 25 25 0 7 11 13 25 13 18 0 25 -5 25 -19z"/></g></g><g fill="#666666" transform="matrix(0.3,0,0,0.3,-7.2,-7.2)" id="gSix8yvdt8aq8"><g transform="translate(0.000000,48.000000) scale(0.100000,-0.100000)"><path d="M215 423 c-11 -2 -29 -6 -41 -8 -23 -5 -77 -82 -63 -90 5 -4 14 -3 19 0 6 3 15 3 22 -1 7 -4 46 -8 87 -8 61 -1 76 -4 79 -17 2 -13 -8 -15 -65 -15 -62 1 -68 -1 -68 -19 0 -16 6 -19 25 -17 14 2 22 1 18 -4 -7 -6 8 -18 50 -40 7 -3 22 2 32 11 11 10 23 15 27 12 7 -8 33 38 33 58 0 7 -13 25 -30 38 -35 30 -38 41 -9 32 37 -12 18 27 -26 52 -40 22 -51 25 -90 16z m41 -44 c11 -19 -12 -32 -35 -20 -15 8 -27 9 -40 1 -21 -11 -37 2 -26 20 8 14 92 13 101 -1z"/><path d="M75 239 c-5 -24 -2 -36 16 -55 12 -13 29 -24 37 -24 9 0 23 -7 33 -16 17 -15 22 -15 56 -1 20 8 39 20 41 27 3 9 -1 11 -12 7 -9 -4 -22 -9 -29 -12 -7 -3 -28 8 -47 25 -18 16 -37 30 -42 30 -5 0 -14 11 -20 25 -15 33 -25 32 -33 -6z"/><path d="M305 168 c-27 -14 -65 -49 -65 -60 0 -18 28 -6 60 27 36 37 38 50 5 33z"/><path d="M323 106 c-12 -21 -89 -46 -102 -33 -7 7 -19 7 -37 -2 -15 -7 -23 -16 -18 -20 14 -13 80 -21 90 -11 5 5 27 10 49 12 37 3 40 5 43 36 3 33 -11 43 -25 18z"/></g></g><g fill="#666666" transform="matrix(0.3,0,0,0.3,-7.2,-7.2)" id="gSix8yvdt8aq9"><g transform="translate(0.000000,48.000000) scale(0.100000,-0.100000)"><path d="M143 423 c-7 -2 -13 -12 -13 -20 0 -11 7 -14 25 -9 15 4 25 2 25 -5 0 -6 -9 -13 -20 -16 -24 -6 -25 -13 -6 -38 13 -18 15 -18 30 -2 10 9 23 17 31 17 14 0 85 -75 85 -90 0 -21 19 -8 29 20 11 34 30 39 38 10 3 -12 14 -20 25 -20 17 0 19 4 13 27 -26 103 -57 127 -170 130 -44 0 -86 -1 -92 -4z m148 -23 c21 0 59 -33 59 -52 0 -7 -5 -20 -10 -28 -8 -12 -14 -10 -38 13 -15 15 -38 27 -49 27 -12 0 -25 5 -28 10 -9 15 15 42 32 35 8 -3 23 -5 34 -5z"/><path d="M130 280 c0 -5 9 -14 21 -21 17 -8 20 -17 15 -40 -5 -28 6 -40 19 -19 3 6 17 10 31 10 21 0 24 -5 24 -32 -1 -37 -20 -68 -41 -68 -8 0 -23 13 -34 30 -24 35 -33 40 -68 33 -35 -7 -34 -19 2 -26 36 -8 71 -43 71 -73 0 -36 19 -39 51 -8 35 34 51 84 42 139 -8 58 -37 85 -90 85 -24 0 -43 -4 -43 -10z"/></g></g><g fill="#666666" transform="matrix(0.3,0,0,0.3,-7.2,-7.2)" id="gSix8yvdt8aqa"><g transform="translate(0.000000,48.000000) scale(0.100000,-0.100000)"><path d="M278 443 c0 -5 -2 -15 -2 -23 -1 -9 -11 -15 -26 -15 -20 0 -26 -6 -28 -28 -3 -22 -7 -27 -20 -22 -9 4 -23 9 -29 12 -7 3 -13 -2 -13 -10 0 -9 -12 -30 -26 -47 -15 -17 -24 -33 -21 -36 11 -11 57 9 63 28 3 11 26 29 52 40 46 21 115 85 106 100 -6 10 -53 11 -56 1z"/><path d="M291 340 c-49 -45 -52 -50 -30 -50 13 0 31 -5 39 -10 13 -9 12 -12 -5 -26 -20 -15 -20 -15 -1 -30 25 -18 31 -18 46 1 18 22 50 19 50 -5 0 -21 -27 -40 -58 -40 -11 0 -27 -11 -36 -25 -20 -30 -56 -34 -56 -6 0 10 7 21 15 25 19 7 19 25 0 32 -19 8 -66 -46 -59 -68 3 -10 -3 -21 -16 -28 -27 -15 -40 -5 -40 30 0 16 -7 30 -16 34 -23 9 -24 8 -24 -19 0 -18 -7 -28 -25 -35 -32 -12 -32 -42 0 -57 22 -10 25 -9 25 9 0 15 4 18 18 13 9 -5 31 -10 49 -13 18 -2 38 -10 44 -18 15 -18 90 -18 115 1 10 8 28 15 40 15 12 0 33 14 48 32 21 26 25 39 20 65 -4 23 0 42 15 67 15 24 18 37 10 41 -6 4 -16 2 -22 -4 -6 -6 -17 -11 -24 -11 -19 0 -16 37 4 49 15 8 15 13 5 33 -11 20 -54 49 -71 48 -4 -1 -30 -23 -60 -50z m69 -39 c0 -11 -5 -23 -11 -27 -15 -9 -33 12 -26 30 9 23 37 20 37 -3z m40 -151 c0 -8 -72 -60 -83 -60 -17 0 -4 31 23 54 27 23 60 26 60 6z m-124 -69 c-9 -14 -33 -14 -41 -1 -4 6 -1 18 6 26 11 13 14 13 27 0 8 -8 11 -19 8 -25z"/><path d="M177 252 c-31 -32 -34 -42 -12 -42 17 0 55 39 55 57 0 20 -14 16 -43 -15z"/></g></g><g fill="#666666" transform="matrix(0.3,0,0,0.3,-7.2,-7.2)" id="gSix8yvdt8aqb"><g transform="translate(0.000000,48.000000) scale(0.100000,-0.100000)"><path d="M200 410 c0 -6 10 -14 23 -19 13 -5 29 -16 36 -25 11 -13 9 -16 -16 -21 -45 -11 -53 -14 -53 -24 0 -5 14 -9 30 -9 36 1 55 -14 46 -37 -7 -19 -40 -13 -68 13 -16 14 -18 13 -18 -4 0 -29 35 -92 63 -114 14 -11 37 -20 51 -20 16 0 26 -6 26 -15 0 -21 -31 -34 -65 -27 -26 5 -28 3 -17 -10 16 -20 71 -29 93 -15 18 11 49 3 49 -13 0 -5 -7 -10 -15 -10 -8 0 -15 -4 -15 -10 0 -14 36 -12 52 3 7 6 20 12 28 12 8 0 15 9 15 20 0 14 -6 19 -17 17 -11 -2 -18 3 -18 13 0 8 6 15 14 15 15 0 32 37 22 48 -4 3 -22 -9 -40 -27 -33 -32 -56 -35 -56 -6 0 8 16 30 35 49 19 20 35 38 35 40 0 3 -15 3 -32 -1 -30 -6 -32 -5 -20 10 21 24 6 37 -44 37 -55 0 -62 26 -9 36 19 3 35 10 35 15 0 5 -4 9 -9 9 -18 0 -21 33 -5 51 16 18 16 19 -10 19 -15 0 -35 -4 -45 -10 -13 -6 -24 -5 -37 5 -22 17 -44 19 -44 5z m124 -176 c20 -8 21 -40 2 -47 -21 -8 -50 17 -43 37 7 17 16 20 41 10z m-64 -25 c0 -5 -4 -9 -10 -9 -5 0 -10 7 -10 16 0 8 5 12 10 9 6 -3 10 -10 10 -16z"/><path d="M97 359 c-21 -11 -40 -28 -43 -37 -3 -9 -10 -25 -15 -36 -11 -18 -3 -89 11 -116 5 -8 21 -15 37 -15 21 0 28 -5 28 -20 0 -14 -6 -20 -22 -19 -26 1 -31 -21 -7 -30 36 -14 123 71 92 90 -6 4 -14 2 -16 -4 -5 -17 -32 -15 -32 2 0 7 9 16 20 19 12 3 20 14 20 26 0 26 -6 26 -48 1 -18 -11 -39 -20 -47 -20 -28 0 -15 30 24 54 53 34 59 46 22 46 -39 0 -39 11 -1 43 38 33 26 41 -23 16z"/></g></g><g fill="#666666" transform="matrix(0.3,0,0,0.3,-7.2,-7.2)" id="gSix8yvdt8aqc"><g transform="translate(0.000000,48.000000) scale(0.100000,-0.100000)"><path d="M293 388 c3 -12 1 -30 -4 -41 -10 -18 -12 -17 -41 12 -22 22 -34 29 -42 21 -5 -5 -18 -10 -28 -10 -14 0 -18 -8 -18 -35 0 -41 -24 -49 -34 -10 -5 21 -10 24 -36 18 -19 -3 -30 -1 -30 6 0 6 -7 11 -15 11 -12 0 -15 -19 -15 -110 0 -67 4 -110 10 -110 6 0 10 10 10 23 0 32 15 51 35 43 13 -4 15 -13 10 -36 -6 -29 6 -42 20 -20 10 17 25 11 25 -10 0 -24 31 -27 50 -6 6 8 15 41 20 73 6 45 5 62 -7 75 -18 20 -13 73 7 73 9 0 17 -16 22 -45 4 -25 11 -46 15 -48 34 -12 37 -21 21 -55 -9 -19 -14 -45 -11 -62 5 -21 0 -32 -18 -46 -13 -10 -18 -19 -11 -19 20 0 48 35 68 85 17 45 17 49 1 77 -26 46 -23 62 12 55 30 -6 30 -6 26 46 -2 29 -4 55 -5 60 0 4 -10 7 -21 7 -17 0 -20 -4 -16 -22z m-205 -97 c5 -29 -13 -50 -29 -34 -15 15 -3 66 14 60 7 -2 14 -14 15 -26z m90 -54 c6 -29 -7 -67 -22 -67 -14 0 -36 48 -36 77 0 22 54 12 58 -10z"/><path d="M385 366 c-10 -15 -14 -33 -9 -50 4 -17 0 -35 -10 -52 -10 -13 -19 -37 -21 -52 -2 -15 -7 -37 -11 -49 -9 -34 13 -28 31 7 9 18 23 30 35 30 29 0 25 -34 -5 -54 -32 -21 -34 -50 -3 -40 38 12 57 45 58 97 0 49 0 49 -30 42 -36 -8 -39 5 -9 46 14 20 17 33 11 45 -5 9 -7 25 -5 35 7 27 -14 23 -32 -5z"/><path d="M150 70 c0 -13 30 -13 50 0 11 7 7 10 -17 10 -18 0 -33 -4 -33 -10z"/><path d="M369 54 c-9 -11 -22 -14 -47 -9 -23 4 -32 3 -27 -4 7 -12 58 -15 69 -4 4 4 15 8 23 8 9 0 18 6 20 13 6 17 -22 15 -38 -4z"/></g></g><g fill="#666666" transform="matrix(0.3,0,0,0.3,-7.2,-7.2)" id="gSix8yvdt8aqd"><g transform="translate(0.000000,48.000000) scale(0.100000,-0.100000)"><path d="M210 397 c0 -20 78 -58 105 -51 18 4 31 -3 59 -33 19 -21 36 -44 36 -50 0 -21 20 -14 20 6 0 30 -56 108 -82 115 -13 3 -42 6 -65 6 -23 0 -45 5 -48 10 -9 14 -25 12 -25 -3z"/><path d="M65 351 c-20 -12 -31 -27 -33 -47 -4 -29 -4 -29 20 -6 13 12 30 22 36 22 29 0 92 26 92 37 0 19 -79 15 -115 -6z"/><path d="M230 292 c0 -6 16 -16 36 -22 19 -7 38 -18 41 -26 3 -8 11 -14 19 -14 8 0 23 -5 34 -12 45 -29 36 19 -11 54 -28 21 -119 36 -119 20z"/><path d="M100 283 c-27 -10 -30 -28 -7 -34 22 -5 67 16 67 32 0 10 -36 11 -60 2z"/><path d="M87 213 c-4 -3 -1 -13 6 -22 8 -9 17 -25 21 -35 6 -17 5 -17 -11 -5 -10 8 -25 23 -35 34 -9 11 -20 17 -24 13 -4 -5 0 -16 9 -26 10 -10 17 -24 17 -30 0 -7 4 -12 9 -12 5 0 12 -8 15 -17 8 -23 69 -51 126 -58 25 -3 57 -8 73 -10 37 -6 35 12 -8 58 -22 24 -43 37 -59 37 -14 0 -30 8 -35 18 -5 9 -28 27 -51 40 -48 25 -45 24 -53 15z m116 -100 c51 -18 61 -33 24 -33 -28 0 -87 28 -87 41 0 13 8 12 63 -8z"/><path d="M237 191 c17 -11 34 -29 38 -41 5 -17 12 -20 35 -15 22 5 31 1 43 -15 18 -26 32 -11 23 25 -8 30 -79 65 -132 65 -39 0 -39 0 -7 -19z"/></g></g><g fill="#666666" transform="matrix(0.3,0,0,0.3,-7.2,-7.2)" id="gSix8yvdt8aqe"><g transform="translate(0.000000,48.000000) scale(0.100000,-0.100000)"><path d="M275 432 c6 -6 21 -12 35 -14 17 -2 26 -10 28 -25 4 -28 -19 -30 -62 -8 -15 8 -35 15 -43 15 -23 0 -9 -24 18 -30 14 -3 30 -19 39 -38 13 -26 57 -62 76 -62 10 0 3 23 -11 36 -24 24 -19 54 9 54 27 0 36 -16 36 -66 0 -35 12 -42 40 -24 12 8 13 13 3 30 -7 11 -13 29 -13 40 0 26 -65 90 -93 90 -12 0 -33 3 -47 6 -17 5 -22 3 -15 -4z"/><path d="M50 245 c0 -27 27 -65 47 -65 18 0 16 25 -2 40 -8 7 -15 21 -15 31 0 11 -7 19 -15 19 -9 0 -15 -9 -15 -25z"/><path d="M90 262 c0 -5 8 -16 19 -26 16 -14 20 -15 30 -2 7 8 10 20 6 26 -7 12 -55 14 -55 2z"/><path d="M215 251 c-2 -5 5 -21 16 -36 29 -36 12 -56 -26 -31 -15 10 -29 15 -32 12 -8 -8 30 -54 55 -65 12 -6 22 -15 22 -21 0 -17 -40 -11 -62 10 -45 42 -53 12 -9 -36 38 -42 53 -46 96 -23 24 13 47 18 64 14 38 -8 91 40 91 83 0 46 -14 46 -44 2 -16 -24 -34 -40 -46 -40 -26 0 -25 15 1 34 13 9 19 21 16 30 -8 20 -21 20 -37 1 -7 -8 -16 -15 -21 -15 -5 0 -9 7 -9 15 0 8 5 15 10 15 22 0 8 28 -17 38 -52 19 -62 21 -68 13z m89 -132 c-7 -11 -34 -12 -34 -1 0 14 11 21 26 15 8 -3 11 -9 8 -14z"/></g></g><g fill="#666666" transform="matrix(0.3,0,0,0.3,-7.2,-7.2)" id="gSix8yvdt8aqf"><g transform="translate(0.000000,48.000000) scale(0.100000,-0.100000)"><path d="M223 397 c-17 -12 -47 -38 -67 -58 -33 -32 -35 -37 -21 -49 13 -11 18 -10 33 4 24 21 58 21 66 0 4 -11 13 -14 29 -10 33 8 51 -7 43 -38 -7 -30 13 -36 34 -11 13 16 40 20 40 6 0 -5 -7 -27 -14 -49 -9 -24 -11 -44 -6 -47 11 -7 40 46 40 73 0 10 5 23 12 30 27 27 -48 69 -144 79 -48 5 -58 9 -58 25 0 27 43 44 75 30 14 -7 33 -12 42 -12 9 0 25 -7 35 -17 10 -9 21 -14 24 -11 9 9 -23 65 -41 72 -35 13 -92 6 -122 -17z"/><path d="M62 269 c-24 -16 -32 -28 -32 -50 0 -33 16 -39 25 -9 4 11 15 20 26 20 16 0 19 -6 17 -27 -4 -38 28 -44 42 -8 9 23 14 26 38 20 15 -3 33 -12 40 -19 21 -20 -2 -56 -34 -56 -37 0 -125 -31 -131 -46 -10 -26 7 -33 39 -17 44 23 84 20 112 -6 29 -27 34 -20 42 56 5 45 2 67 -11 92 -16 31 -19 33 -58 27 -44 -6 -58 -1 -73 26 -9 16 -12 16 -42 -3z"/></g></g><g fill="#666666" transform="matrix(0.3,0,0,0.3,-7.2,-7.2)" id="gSix8yvdt8aqg"><g transform="translate(0.000000,48.000000) scale(0.100000,-0.100000)"><path d="M216 394 c-10 -27 -7 -34 18 -34 29 0 39 12 30 34 -8 21 -40 21 -48 0z"/><path d="M110 302 c0 -23 28 -43 55 -40 30 3 30 3 -8 26 -42 24 -47 26 -47 14z"/><path d="M280 263 c0 -8 7 -16 15 -19 28 -11 15 -24 -25 -24 -22 0 -40 -4 -40 -10 0 -5 9 -10 20 -10 11 0 39 -5 62 -11 35 -9 50 -8 81 5 48 21 49 41 2 32 -27 -5 -35 -4 -35 7 0 8 7 17 15 21 31 12 13 22 -40 22 -39 0 -55 -4 -55 -13z"/><path d="M80 245 c0 -16 78 -56 93 -48 13 8 7 23 -9 23 -9 0 -27 9 -41 20 -31 24 -43 25 -43 5z"/><path d="M178 143 c-47 -4 -63 -18 -33 -29 30 -12 15 -26 -20 -20 -23 5 -35 3 -35 -4 0 -16 63 -40 104 -40 42 0 106 28 106 47 0 15 -26 18 -35 3 -3 -5 -18 -10 -32 -10 -26 0 -26 0 -5 23 25 26 28 38 10 35 -7 -1 -34 -3 -60 -5z"/></g></g></defs>
				<g id="Pattern" style="clip-path: url(#clipPath);">
				<use xmlns:xlink="http://www.w3.org/1999/xlink" xlink:href="#gSix8yvdt8aq8" x="132.0120775205207" y="128.43824644668223"/><use xmlns:xlink="http://www.w3.org/1999/xlink" xlink:href="#gSix8yvdt8aq8" x="152.28811080596716" y="237.27564350040345"/><use xmlns:xlink="http://www.w3.org/1999/xlink" xlink:href="#gSix8yvdt8aq8" x="152.28811080596716" y="-18.724356499596553"/><use xmlns:xlink="http://www.w3.org/1999/xlink" xlink:href="#gSix8yvdt8aq6" x="78.14361303944419" y="214.56202111369055"/><use xmlns:xlink="http://www.w3.org/1999/xlink" xlink:href="#gSix8yvdt8aqc" x="3.5515098876450586" y="12.16042672996111"/><use xmlns:xlink="http://www.w3.org/1999/xlink" xlink:href="#gSix8yvdt8aqc" x="259.55150988764507" y="12.16042672996111"/><use xmlns:xlink="http://www.w3.org/1999/xlink" xlink:href="#gSix8yvdt8aqc" x="259.55150988764507" y="268.1604267299611"/><use xmlns:xlink="http://www.w3.org/1999/xlink" xlink:href="#gSix8yvdt8aqc" x="3.5515098876450586" y="268.1604267299611"/><use xmlns:xlink="http://www.w3.org/1999/xlink" xlink:href="#gSix8yvdt8aqc" x="259.55150988764507" y="268.1604267299611"/><use xmlns:xlink="http://www.w3.org/1999/xlink" xlink:href="#gSix8yvdt8aq6" x="21.844560876881314" y="175.13304059095776"/><use xmlns:xlink="http://www.w3.org/1999/xlink" xlink:href="#gSix8yvdt8aq6" x="277.8445608768813" y="175.13304059095776"/><use xmlns:xlink="http://www.w3.org/1999/xlink" xlink:href="#gSix8yvdt8aqb" x="27.96228083542898" y="3.317450993455004"/><use xmlns:xlink="http://www.w3.org/1999/xlink" xlink:href="#gSix8yvdt8aqb" x="283.962280835429" y="3.317450993455004"/><use xmlns:xlink="http://www.w3.org/1999/xlink" xlink:href="#gSix8yvdt8aqb" x="283.962280835429" y="259.317450993455"/><use xmlns:xlink="http://www.w3.org/1999/xlink" xlink:href="#gSix8yvdt8aqb" x="27.96228083542898" y="259.317450993455"/><use xmlns:xlink="http://www.w3.org/1999/xlink" xlink:href="#gSix8yvdt8aqb" x="283.962280835429" y="259.317450993455"/><use xmlns:xlink="http://www.w3.org/1999/xlink" xlink:href="#gSix8yvdt8aq9" x="78.3455434250849" y="18.93549109001343"/><use xmlns:xlink="http://www.w3.org/1999/xlink" xlink:href="#gSix8yvdt8aq9" x="78.3455434250849" y="274.93549109001344"/><use xmlns:xlink="http://www.w3.org/1999/xlink" xlink:href="#gSix8yvdt8aqg" x="210.00805466113974" y="97.57783070167375"/><use xmlns:xlink="http://www.w3.org/1999/xlink" xlink:href="#gSix8yvdt8aqa" x="55.92467002066211" y="227.1571280953894"/><use xmlns:xlink="http://www.w3.org/1999/xlink" xlink:href="#gSix8yvdt8aqa" x="55.92467002066211" y="-28.842871904610604"/><use xmlns:xlink="http://www.w3.org/1999/xlink" xlink:href="#gSix8yvdt8aqd" x="112.37360221949702" y="64.83702002046266"/><use xmlns:xlink="http://www.w3.org/1999/xlink" xlink:href="#gSix8yvdt8aqf" x="207.65234273527614" y="144.5107980889628"/><use xmlns:xlink="http://www.w3.org/1999/xlink" xlink:href="#gSix8yvdt8aqb" x="172.77602090585611" y="224.42559702958738"/><use xmlns:xlink="http://www.w3.org/1999/xlink" xlink:href="#gSix8yvdt8aqb" x="172.77602090585611" y="-31.57440297041262"/><use xmlns:xlink="http://www.w3.org/1999/xlink" xlink:href="#gSix8yvdt8aqg" x="88.46771295323494" y="48.65092856293824"/><use xmlns:xlink="http://www.w3.org/1999/xlink" xlink:href="#gSix8yvdt8aq6" x="73.37939109818272" y="37.19632379861008"/><use xmlns:xlink="http://www.w3.org/1999/xlink" xlink:href="#gSix8yvdt8aqg" x="1.3644613685490332" y="22.83366044447894"/><use xmlns:xlink="http://www.w3.org/1999/xlink" xlink:href="#gSix8yvdt8aqg" x="257.36446136854903" y="22.83366044447894"/><use xmlns:xlink="http://www.w3.org/1999/xlink" xlink:href="#gSix8yvdt8aqg" x="257.36446136854903" y="278.83366044447894"/><use xmlns:xlink="http://www.w3.org/1999/xlink" xlink:href="#gSix8yvdt8aqg" x="1.3644613685490332" y="278.83366044447894"/><use xmlns:xlink="http://www.w3.org/1999/xlink" xlink:href="#gSix8yvdt8aqg" x="257.36446136854903" y="278.83366044447894"/><use xmlns:xlink="http://www.w3.org/1999/xlink" xlink:href="#gSix8yvdt8aq6" x="129.1128471655434" y="244.5232184415142"/><use xmlns:xlink="http://www.w3.org/1999/xlink" xlink:href="#gSix8yvdt8aq6" x="129.1128471655434" y="-11.476781558485811"/><use xmlns:xlink="http://www.w3.org/1999/xlink" xlink:href="#gSix8yvdt8aq7" x="141.62297216623932" y="131.35162515997519"/><use xmlns:xlink="http://www.w3.org/1999/xlink" xlink:href="#gSix8yvdt8aq8" x="6.347166057934776" y="85.8150021491434"/><use xmlns:xlink="http://www.w3.org/1999/xlink" xlink:href="#gSix8yvdt8aq8" x="262.34716605793477" y="85.8150021491434"/><use xmlns:xlink="http://www.w3.org/1999/xlink" xlink:href="#gSix8yvdt8aqf" x="88.07072388888662" y="176.3097017968953"/><use xmlns:xlink="http://www.w3.org/1999/xlink" xlink:href="#gSix8yvdt8aqf" x="4.909588278750613" y="252.90196450676842"/><use xmlns:xlink="http://www.w3.org/1999/xlink" xlink:href="#gSix8yvdt8aqf" x="260.9095882787506" y="252.90196450676842"/><use xmlns:xlink="http://www.w3.org/1999/xlink" xlink:href="#gSix8yvdt8aqf" x="260.9095882787506" y="-3.0980354932315777"/><use xmlns:xlink="http://www.w3.org/1999/xlink" xlink:href="#gSix8yvdt8aqf" x="4.909588278750613" y="-3.0980354932315777"/><use xmlns:xlink="http://www.w3.org/1999/xlink" xlink:href="#gSix8yvdt8aqf" x="260.9095882787506" y="-3.0980354932315777"/><use xmlns:xlink="http://www.w3.org/1999/xlink" xlink:href="#gSix8yvdt8aq8" x="232.48411255482824" y="196.9736526721123"/><use xmlns:xlink="http://www.w3.org/1999/xlink" xlink:href="#gSix8yvdt8aq8" x="-23.515887445171757" y="196.9736526721123"/><use xmlns:xlink="http://www.w3.org/1999/xlink" xlink:href="#gSix8yvdt8aqd" x="155.66589615422794" y="177.60142701564715"/><use xmlns:xlink="http://www.w3.org/1999/xlink" xlink:href="#gSix8yvdt8aq7" x="119.65320560454873" y="11.126192530440395"/><use xmlns:xlink="http://www.w3.org/1999/xlink" xlink:href="#gSix8yvdt8aq7" x="119.65320560454873" y="267.1261925304404"/><use xmlns:xlink="http://www.w3.org/1999/xlink" xlink:href="#gSix8yvdt8aq7" x="205.1512599659337" y="208.36125569568043"/><use xmlns:xlink="http://www.w3.org/1999/xlink" xlink:href="#gSix8yvdt8aqe" x="21.599368667010665" y="20.90025570750247"/><use xmlns:xlink="http://www.w3.org/1999/xlink" xlink:href="#gSix8yvdt8aqe" x="277.59936866701065" y="20.90025570750247"/><use xmlns:xlink="http://www.w3.org/1999/xlink" xlink:href="#gSix8yvdt8aqe" x="277.59936866701065" y="276.9002557075025"/><use xmlns:xlink="http://www.w3.org/1999/xlink" xlink:href="#gSix8yvdt8aqe" x="21.599368667010665" y="276.9002557075025"/><use xmlns:xlink="http://www.w3.org/1999/xlink" xlink:href="#gSix8yvdt8aqe" x="277.59936866701065" y="276.9002557075025"/><use xmlns:xlink="http://www.w3.org/1999/xlink" xlink:href="#gSix8yvdt8aq7" x="112.44707886337673" y="129.3262247537428"/><use xmlns:xlink="http://www.w3.org/1999/xlink" xlink:href="#gSix8yvdt8aqc" x="220.6446801838903" y="53.68142353420936"/><use xmlns:xlink="http://www.w3.org/1999/xlink" xlink:href="#gSix8yvdt8aqd" x="79.27752985732751" y="1.8933105507944332"/><use xmlns:xlink="http://www.w3.org/1999/xlink" xlink:href="#gSix8yvdt8aqd" x="79.27752985732751" y="257.8933105507944"/><use xmlns:xlink="http://www.w3.org/1999/xlink" xlink:href="#gSix8yvdt8aqf" x="148.0437001348741" y="238.48210772732156"/><use xmlns:xlink="http://www.w3.org/1999/xlink" xlink:href="#gSix8yvdt8aqf" x="148.0437001348741" y="-17.517892272678438"/><use xmlns:xlink="http://www.w3.org/1999/xlink" xlink:href="#gSix8yvdt8aqb" x="160.04227759300315" y="56.938528306371616"/><use xmlns:xlink="http://www.w3.org/1999/xlink" xlink:href="#gSix8yvdt8aqg" x="54.33562531846701" y="48.26691738312759"/><use xmlns:xlink="http://www.w3.org/1999/xlink" xlink:href="#gSix8yvdt8aqe" x="185.31429740126202" y="162.38053276678886"/><use xmlns:xlink="http://www.w3.org/1999/xlink" xlink:href="#gSix8yvdt8aq5" x="182.14024671479586" y="178.24692439880093"/><use xmlns:xlink="http://www.w3.org/1999/xlink" xlink:href="#gSix8yvdt8aq9" x="248.46829824885123" y="24.984842119648064"/><use xmlns:xlink="http://www.w3.org/1999/xlink" xlink:href="#gSix8yvdt8aq9" x="-7.531701751148773" y="24.984842119648064"/><use xmlns:xlink="http://www.w3.org/1999/xlink" xlink:href="#gSix8yvdt8aq9" x="-7.531701751148773" y="280.9848421196481"/><use xmlns:xlink="http://www.w3.org/1999/xlink" xlink:href="#gSix8yvdt8aq9" x="248.46829824885123" y="280.9848421196481"/><use xmlns:xlink="http://www.w3.org/1999/xlink" xlink:href="#gSix8yvdt8aq9" x="-7.531701751148773" y="280.9848421196481"/><use xmlns:xlink="http://www.w3.org/1999/xlink" xlink:href="#gSix8yvdt8aq6" x="179.43033291266707" y="103.08094687845191"/><use xmlns:xlink="http://www.w3.org/1999/xlink" xlink:href="#gSix8yvdt8aq6" x="216.58429802908245" y="32.19355939955893"/><use xmlns:xlink="http://www.w3.org/1999/xlink" xlink:href="#gSix8yvdt8aq9" x="27.44035347731724" y="38.23518496090471"/><use xmlns:xlink="http://www.w3.org/1999/xlink" xlink:href="#gSix8yvdt8aq9" x="283.4403534773172" y="38.23518496090471"/><use xmlns:xlink="http://www.w3.org/1999/xlink" xlink:href="#gSix8yvdt8aqa" x="174.06568536632926" y="116.13765691471035"/><use xmlns:xlink="http://www.w3.org/1999/xlink" xlink:href="#gSix8yvdt8aq9" x="54.67635936930249" y="149.57725685717102"/><use xmlns:xlink="http://www.w3.org/1999/xlink" xlink:href="#gSix8yvdt8aqa" x="58.05686619833857" y="253.39420845102467"/><use xmlns:xlink="http://www.w3.org/1999/xlink" xlink:href="#gSix8yvdt8aqa" x="58.05686619833857" y="-2.6057915489753327"/><use xmlns:xlink="http://www.w3.org/1999/xlink" xlink:href="#gSix8yvdt8aqc" x="236.68042061454926" y="1.6989077404432886"/><use xmlns:xlink="http://www.w3.org/1999/xlink" xlink:href="#gSix8yvdt8aqc" x="-19.319579385450737" y="1.6989077404432886"/><use xmlns:xlink="http://www.w3.org/1999/xlink" xlink:href="#gSix8yvdt8aqc" x="-19.319579385450737" y="257.6989077404433"/><use xmlns:xlink="http://www.w3.org/1999/xlink" xlink:href="#gSix8yvdt8aqc" x="236.68042061454926" y="257.6989077404433"/><use xmlns:xlink="http://www.w3.org/1999/xlink" xlink:href="#gSix8yvdt8aqc" x="-19.319579385450737" y="257.6989077404433"/><use xmlns:xlink="http://www.w3.org/1999/xlink" xlink:href="#gSix8yvdt8aq9" x="40.77886936844903" y="92.49717759627848"/><use xmlns:xlink="http://www.w3.org/1999/xlink" xlink:href="#gSix8yvdt8aqg" x="56.11923731904102" y="128.98176968865505"/><use xmlns:xlink="http://www.w3.org/1999/xlink" xlink:href="#gSix8yvdt8aq9" x="41.91942156650106" y="133.57382397504216"/><use xmlns:xlink="http://www.w3.org/1999/xlink" xlink:href="#gSix8yvdt8aqc" x="123.79847810030496" y="186.13093120244116"/><use xmlns:xlink="http://www.w3.org/1999/xlink" xlink:href="#gSix8yvdt8aq8" x="73.4602971805529" y="87.17623468682802"/><use xmlns:xlink="http://www.w3.org/1999/xlink" xlink:href="#gSix8yvdt8aq6" x="129.7945816283015" y="199.3114073677439"/><use xmlns:xlink="http://www.w3.org/1999/xlink" xlink:href="#gSix8yvdt8aq6" x="211.71401462958548" y="123.91027219774915"/><use xmlns:xlink="http://www.w3.org/1999/xlink" xlink:href="#gSix8yvdt8aq7" x="63.05295836447353" y="104.23590267176633"/><use xmlns:xlink="http://www.w3.org/1999/xlink" xlink:href="#gSix8yvdt8aq8" x="38.10335088892119" y="194.07743018398486"/><use xmlns:xlink="http://www.w3.org/1999/xlink" xlink:href="#gSix8yvdt8aqb" x="143.87351982282894" y="42.61999425379924"/><use xmlns:xlink="http://www.w3.org/1999/xlink" xlink:href="#gSix8yvdt8aq6" x="200.66779300531957" y="133.73032425555448"/><use xmlns:xlink="http://www.w3.org/1999/xlink" xlink:href="#gSix8yvdt8aqg" x="250.5636084018776" y="188.6436570632576"/><use xmlns:xlink="http://www.w3.org/1999/xlink" xlink:href="#gSix8yvdt8aqg" x="-5.4363915981224125" y="188.6436570632576"/><use xmlns:xlink="http://www.w3.org/1999/xlink" xlink:href="#gSix8yvdt8aq7" x="93.25246477024199" y="97.53883251943653"/><use xmlns:xlink="http://www.w3.org/1999/xlink" xlink:href="#gSix8yvdt8aqd" x="115.22523227869746" y="118.44242808741699"/><use xmlns:xlink="http://www.w3.org/1999/xlink" xlink:href="#gSix8yvdt8aq9" x="154.9194411097042" y="115.70757689576074"/><use xmlns:xlink="http://www.w3.org/1999/xlink" xlink:href="#gSix8yvdt8aqb" x="229.19961282255136" y="138.57056337061664"/><use xmlns:xlink="http://www.w3.org/1999/xlink" xlink:href="#gSix8yvdt8aqb" x="-26.80038717744864" y="138.57056337061664"/><use xmlns:xlink="http://www.w3.org/1999/xlink" xlink:href="#gSix8yvdt8aqa" x="178.46738838549223" y="83.69461955958161"/><use xmlns:xlink="http://www.w3.org/1999/xlink" xlink:href="#gSix8yvdt8aqb" x="145.74255760738367" y="181.6582571719676"/><use xmlns:xlink="http://www.w3.org/1999/xlink" xlink:href="#gSix8yvdt8aqf" x="184.50181281565804" y="142.72379562445016"/><use xmlns:xlink="http://www.w3.org/1999/xlink" xlink:href="#gSix8yvdt8aq8" x="22.80111821421143" y="232.42765011860575"/><use xmlns:xlink="http://www.w3.org/1999/xlink" xlink:href="#gSix8yvdt8aq8" x="278.80111821421144" y="232.42765011860575"/><use xmlns:xlink="http://www.w3.org/1999/xlink" xlink:href="#gSix8yvdt8aq8" x="278.80111821421144" y="-23.572349881394246"/><use xmlns:xlink="http://www.w3.org/1999/xlink" xlink:href="#gSix8yvdt8aq8" x="22.80111821421143" y="-23.572349881394246"/><use xmlns:xlink="http://www.w3.org/1999/xlink" xlink:href="#gSix8yvdt8aq8" x="278.80111821421144" y="-23.572349881394246"/><use xmlns:xlink="http://www.w3.org/1999/xlink" xlink:href="#gSix8yvdt8aqa" x="97.81597568312131" y="66.0946240963151"/><use xmlns:xlink="http://www.w3.org/1999/xlink" xlink:href="#gSix8yvdt8aq5" x="31.795578211059443" y="81.60185723344023"/><use xmlns:xlink="http://www.w3.org/1999/xlink" xlink:href="#gSix8yvdt8aq5" x="287.7955782110594" y="81.60185723344023"/><use xmlns:xlink="http://www.w3.org/1999/xlink" xlink:href="#gSix8yvdt8aq9" x="148.90559162445027" y="204.44820596407757"/><use xmlns:xlink="http://www.w3.org/1999/xlink" xlink:href="#gSix8yvdt8aqa" x="191.6933035577943" y="252.07011935069391"/><use xmlns:xlink="http://www.w3.org/1999/xlink" xlink:href="#gSix8yvdt8aqa" x="191.6933035577943" y="-3.929880649306085"/><use xmlns:xlink="http://www.w3.org/1999/xlink" xlink:href="#gSix8yvdt8aqa" x="142.21412918078164" y="4.826465405105042"/><use xmlns:xlink="http://www.w3.org/1999/xlink" xlink:href="#gSix8yvdt8aqa" x="142.21412918078164" y="260.82646540510507"/><use xmlns:xlink="http://www.w3.org/1999/xlink" xlink:href="#gSix8yvdt8aqf" x="2.812467388939044" y="67.26086626935415"/><use xmlns:xlink="http://www.w3.org/1999/xlink" xlink:href="#gSix8yvdt8aqf" x="258.81246738893907" y="67.26086626935415"/><use xmlns:xlink="http://www.w3.org/1999/xlink" xlink:href="#gSix8yvdt8aq6" x="234.46929823707168" y="31.517528177642696"/><use xmlns:xlink="http://www.w3.org/1999/xlink" xlink:href="#gSix8yvdt8aq6" x="-21.530701762928317" y="31.517528177642696"/><use xmlns:xlink="http://www.w3.org/1999/xlink" xlink:href="#gSix8yvdt8aq6" x="-21.530701762928317" y="287.5175281776427"/><use xmlns:xlink="http://www.w3.org/1999/xlink" xlink:href="#gSix8yvdt8aq6" x="234.46929823707168" y="287.5175281776427"/><use xmlns:xlink="http://www.w3.org/1999/xlink" xlink:href="#gSix8yvdt8aq6" x="-21.530701762928317" y="287.5175281776427"/><use xmlns:xlink="http://www.w3.org/1999/xlink" xlink:href="#gSix8yvdt8aqe" x="178.38538221336893" y="11.994494422729414"/><use xmlns:xlink="http://www.w3.org/1999/xlink" xlink:href="#gSix8yvdt8aqe" x="178.38538221336893" y="267.9944944227294"/><use xmlns:xlink="http://www.w3.org/1999/xlink" xlink:href="#gSix8yvdt8aqc" x="54.38097727984101" y="172.29800092490817"/><use xmlns:xlink="http://www.w3.org/1999/xlink" xlink:href="#gSix8yvdt8aq9" x="36.720223814663626" y="156.40658616449363"/><use xmlns:xlink="http://www.w3.org/1999/xlink" xlink:href="#gSix8yvdt8aqb" x="114.94465686450194" y="252.56003476912963"/><use xmlns:xlink="http://www.w3.org/1999/xlink" xlink:href="#gSix8yvdt8aqb" x="114.94465686450194" y="-3.4399652308703708"/><use xmlns:xlink="http://www.w3.org/1999/xlink" xlink:href="#gSix8yvdt8aq9" x="98.65258998925387" y="143.22910775340864"/><use xmlns:xlink="http://www.w3.org/1999/xlink" xlink:href="#gSix8yvdt8aq9" x="186.4213642948985" y="103.69929545283952"/><use xmlns:xlink="http://www.w3.org/1999/xlink" xlink:href="#gSix8yvdt8aqb" x="145.89285521898879" y="97.22422618319142"/><use xmlns:xlink="http://www.w3.org/1999/xlink" xlink:href="#gSix8yvdt8aq6" x="55.60012440555846" y="109.41717815850505"/><use xmlns:xlink="http://www.w3.org/1999/xlink" xlink:href="#gSix8yvdt8aqg" x="155.41989596171564" y="184.4479773425529"/><use xmlns:xlink="http://www.w3.org/1999/xlink" xlink:href="#gSix8yvdt8aqf" x="18.025420164549242" y="160.43581038659315"/><use xmlns:xlink="http://www.w3.org/1999/xlink" xlink:href="#gSix8yvdt8aqf" x="274.02542016454925" y="160.43581038659315"/><use xmlns:xlink="http://www.w3.org/1999/xlink" xlink:href="#gSix8yvdt8aq8" x="28.088688245057565" y="212.99043860062653"/><use xmlns:xlink="http://www.w3.org/1999/xlink" xlink:href="#gSix8yvdt8aq8" x="284.08868824505754" y="212.99043860062653"/><use xmlns:xlink="http://www.w3.org/1999/xlink" xlink:href="#gSix8yvdt8aq8" x="21.599584467979906" y="248.7969071917642"/><use xmlns:xlink="http://www.w3.org/1999/xlink" xlink:href="#gSix8yvdt8aq8" x="277.5995844679799" y="248.7969071917642"/><use xmlns:xlink="http://www.w3.org/1999/xlink" xlink:href="#gSix8yvdt8aq8" x="277.5995844679799" y="-7.203092808235795"/><use xmlns:xlink="http://www.w3.org/1999/xlink" xlink:href="#gSix8yvdt8aq8" x="21.599584467979906" y="-7.203092808235795"/><use xmlns:xlink="http://www.w3.org/1999/xlink" xlink:href="#gSix8yvdt8aq8" x="277.5995844679799" y="-7.203092808235795"/><use xmlns:xlink="http://www.w3.org/1999/xlink" xlink:href="#gSix8yvdt8aqg" x="37.32505463505717" y="242.53790520387344"/><use xmlns:xlink="http://www.w3.org/1999/xlink" xlink:href="#gSix8yvdt8aqg" x="37.32505463505717" y="-13.462094796126564"/><use xmlns:xlink="http://www.w3.org/1999/xlink" xlink:href="#gSix8yvdt8aqa" x="174.29976872226126" y="27.96299538797299"/><use xmlns:xlink="http://www.w3.org/1999/xlink" xlink:href="#gSix8yvdt8aqa" x="174.29976872226126" y="283.96299538797297"/><use xmlns:xlink="http://www.w3.org/1999/xlink" xlink:href="#gSix8yvdt8aqd" x="199.55668611237542" y="244.3761342516147"/><use xmlns:xlink="http://www.w3.org/1999/xlink" xlink:href="#gSix8yvdt8aqd" x="199.55668611237542" y="-11.623865748385299"/><use xmlns:xlink="http://www.w3.org/1999/xlink" xlink:href="#gSix8yvdt8aq9" x="39.70174336548019" y="224.36727351423653"/><use xmlns:xlink="http://www.w3.org/1999/xlink" xlink:href="#gSix8yvdt8aq9" x="39.70174336548019" y="-31.63272648576347"/><use xmlns:xlink="http://www.w3.org/1999/xlink" xlink:href="#gSix8yvdt8aqf" x="190.96771487273946" y="130.68959525679253"/><use xmlns:xlink="http://www.w3.org/1999/xlink" xlink:href="#gSix8yvdt8aqf" x="74.08440938977652" y="182.470550992194"/><use xmlns:xlink="http://www.w3.org/1999/xlink" xlink:href="#gSix8yvdt8aq9" x="53.433957708737125" y="12.698299899015959"/><use xmlns:xlink="http://www.w3.org/1999/xlink" xlink:href="#gSix8yvdt8aq9" x="53.433957708737125" y="268.698299899016"/><use xmlns:xlink="http://www.w3.org/1999/xlink" xlink:href="#gSix8yvdt8aq6" x="85.56187063108842" y="249.53182937543843"/><use xmlns:xlink="http://www.w3.org/1999/xlink" xlink:href="#gSix8yvdt8aq6" x="85.56187063108842" y="-6.468170624561566"/><use xmlns:xlink="http://www.w3.org/1999/xlink" xlink:href="#gSix8yvdt8aq6" x="206.39190674513225" y="64.2896881102697"/><use xmlns:xlink="http://www.w3.org/1999/xlink" xlink:href="#gSix8yvdt8aqe" x="249.6479746406154" y="106.81623308299805"/><use xmlns:xlink="http://www.w3.org/1999/xlink" xlink:href="#gSix8yvdt8aqe" x="-6.352025359384612" y="106.81623308299805"/><use xmlns:xlink="http://www.w3.org/1999/xlink" xlink:href="#gSix8yvdt8aqg" x="197.7365056828048" y="168.65729480973334"/><use xmlns:xlink="http://www.w3.org/1999/xlink" xlink:href="#gSix8yvdt8aq5" x="149.48176446372537" y="175.83799215077363"/><use xmlns:xlink="http://www.w3.org/1999/xlink" xlink:href="#gSix8yvdt8aq9" x="237.97135933571178" y="95.04592214676046"/><use xmlns:xlink="http://www.w3.org/1999/xlink" xlink:href="#gSix8yvdt8aq9" x="-18.02864066428822" y="95.04592214676046"/><use xmlns:xlink="http://www.w3.org/1999/xlink" xlink:href="#gSix8yvdt8aq8" x="159.88040291659215" y="245.28608184213246"/><use xmlns:xlink="http://www.w3.org/1999/xlink" xlink:href="#gSix8yvdt8aq8" x="159.88040291659215" y="-10.713918157867539"/><use xmlns:xlink="http://www.w3.org/1999/xlink" xlink:href="#gSix8yvdt8aq5" x="11.385896304150506" y="202.50639040083644"/><use xmlns:xlink="http://www.w3.org/1999/xlink" xlink:href="#gSix8yvdt8aq5" x="267.3858963041505" y="202.50639040083644"/><use xmlns:xlink="http://www.w3.org/1999/xlink" xlink:href="#gSix8yvdt8aqd" x="253.79166147595038" y="11.56868129751165"/><use xmlns:xlink="http://www.w3.org/1999/xlink" xlink:href="#gSix8yvdt8aqd" x="-2.2083385240496227" y="11.56868129751165"/><use xmlns:xlink="http://www.w3.org/1999/xlink" xlink:href="#gSix8yvdt8aqd" x="-2.2083385240496227" y="267.56868129751166"/><use xmlns:xlink="http://www.w3.org/1999/xlink" xlink:href="#gSix8yvdt8aqd" x="253.79166147595038" y="267.56868129751166"/><use xmlns:xlink="http://www.w3.org/1999/xlink" xlink:href="#gSix8yvdt8aqd" x="-2.2083385240496227" y="267.56868129751166"/><use xmlns:xlink="http://www.w3.org/1999/xlink" xlink:href="#gSix8yvdt8aqf" x="78.20062966716192" y="122.47519053351944"/><use xmlns:xlink="http://www.w3.org/1999/xlink" xlink:href="#gSix8yvdt8aq8" x="251.9773168428963" y="36.62512005206931"/><use xmlns:xlink="http://www.w3.org/1999/xlink" xlink:href="#gSix8yvdt8aq8" x="-4.0226831571037" y="36.62512005206931"/><use xmlns:xlink="http://www.w3.org/1999/xlink" xlink:href="#gSix8yvdt8aqc" x="116.03378506146609" y="186.17146888798874"/><use xmlns:xlink="http://www.w3.org/1999/xlink" xlink:href="#gSix8yvdt8aq7" x="157.36372440591637" y="80.71073089804547"/><use xmlns:xlink="http://www.w3.org/1999/xlink" xlink:href="#gSix8yvdt8aqg" x="54.961034282465945" y="204.52563486434624"/><use xmlns:xlink="http://www.w3.org/1999/xlink" xlink:href="#gSix8yvdt8aqf" x="66.1857839604553" y="245.37459204035676"/><use xmlns:xlink="http://www.w3.org/1999/xlink" xlink:href="#gSix8yvdt8aqf" x="66.1857839604553" y="-10.62540795964324"/><use xmlns:xlink="http://www.w3.org/1999/xlink" xlink:href="#gSix8yvdt8aqd" x="79.23138849229258" y="93.63334727984386"/><use xmlns:xlink="http://www.w3.org/1999/xlink" xlink:href="#gSix8yvdt8aq9" x="115.44410223661053" y="54.48537766116658"/><use xmlns:xlink="http://www.w3.org/1999/xlink" xlink:href="#gSix8yvdt8aqd" x="76.12068644634795" y="198.08183368027574"/><use xmlns:xlink="http://www.w3.org/1999/xlink" xlink:href="#gSix8yvdt8aq5" x="3.8533978475954505" y="230.53704698148704"/><use xmlns:xlink="http://www.w3.org/1999/xlink" xlink:href="#gSix8yvdt8aq5" x="259.85339784759543" y="230.53704698148704"/><use xmlns:xlink="http://www.w3.org/1999/xlink" xlink:href="#gSix8yvdt8aq5" x="259.85339784759543" y="-25.462953018512962"/><use xmlns:xlink="http://www.w3.org/1999/xlink" xlink:href="#gSix8yvdt8aq5" x="3.8533978475954505" y="-25.462953018512962"/><use xmlns:xlink="http://www.w3.org/1999/xlink" xlink:href="#gSix8yvdt8aq5" x="259.85339784759543" y="-25.462953018512962"/><use xmlns:xlink="http://www.w3.org/1999/xlink" xlink:href="#gSix8yvdt8aqa" x="9.906333566002838" y="152.17001075361924"/><use xmlns:xlink="http://www.w3.org/1999/xlink" xlink:href="#gSix8yvdt8aqa" x="265.90633356600284" y="152.17001075361924"/><use xmlns:xlink="http://www.w3.org/1999/xlink" xlink:href="#gSix8yvdt8aq8" x="144.21371170979174" y="149.43719254144563"/><use xmlns:xlink="http://www.w3.org/1999/xlink" xlink:href="#gSix8yvdt8aqb" x="179.6138833922264" y="133.81496961935827"/><use xmlns:xlink="http://www.w3.org/1999/xlink" xlink:href="#gSix8yvdt8aqf" x="39.90864388917298" y="138.37867251393533"/><use xmlns:xlink="http://www.w3.org/1999/xlink" xlink:href="#gSix8yvdt8aqd" x="219.62023686255333" y="25.760246653873843"/><use xmlns:xlink="http://www.w3.org/1999/xlink" xlink:href="#gSix8yvdt8aqd" x="219.62023686255333" y="281.7602466538738"/><use xmlns:xlink="http://www.w3.org/1999/xlink" xlink:href="#gSix8yvdt8aq7" x="248.67917568601194" y="132.47434440238774"/><use xmlns:xlink="http://www.w3.org/1999/xlink" xlink:href="#gSix8yvdt8aq7" x="-7.320824313988055" y="132.47434440238774"/><use xmlns:xlink="http://www.w3.org/1999/xlink" xlink:href="#gSix8yvdt8aq5" x="163.6347632289852" y="222.38203976441977"/><use xmlns:xlink="http://www.w3.org/1999/xlink" xlink:href="#gSix8yvdt8aq9" x="177.1380130203604" y="254.95718351150046"/><use xmlns:xlink="http://www.w3.org/1999/xlink" xlink:href="#gSix8yvdt8aq9" x="177.1380130203604" y="-1.0428164884995397"/><use xmlns:xlink="http://www.w3.org/1999/xlink" xlink:href="#gSix8yvdt8aqg" x="97.71752981659573" y="187.5313328312704"/><use xmlns:xlink="http://www.w3.org/1999/xlink" xlink:href="#gSix8yvdt8aqf" x="192.40751108420508" y="68.18496621159842"/><use xmlns:xlink="http://www.w3.org/1999/xlink" xlink:href="#gSix8yvdt8aqc" x="247.61561895554811" y="207.08818522823566"/><use xmlns:xlink="http://www.w3.org/1999/xlink" xlink:href="#gSix8yvdt8aqc" x="-8.384381044451885" y="207.08818522823566"/><use xmlns:xlink="http://www.w3.org/1999/xlink" xlink:href="#gSix8yvdt8aqa" x="191.70076345060212" y="21.796341089662352"/><use xmlns:xlink="http://www.w3.org/1999/xlink" xlink:href="#gSix8yvdt8aqa" x="191.70076345060212" y="277.79634108966235"/><use xmlns:xlink="http://www.w3.org/1999/xlink" xlink:href="#gSix8yvdt8aqc" x="203.04173913574388" y="30.94457050427493"/><use xmlns:xlink="http://www.w3.org/1999/xlink" xlink:href="#gSix8yvdt8aqc" x="203.04173913574388" y="286.9445705042749"/><use xmlns:xlink="http://www.w3.org/1999/xlink" xlink:href="#gSix8yvdt8aqb" x="228.0537632430525" y="153.2008720709158"/><use xmlns:xlink="http://www.w3.org/1999/xlink" xlink:href="#gSix8yvdt8aqb" x="-27.946236756947513" y="153.2008720709158"/><use xmlns:xlink="http://www.w3.org/1999/xlink" xlink:href="#gSix8yvdt8aq8" x="5.193240238367596" y="124.61595253731802"/><use xmlns:xlink="http://www.w3.org/1999/xlink" xlink:href="#gSix8yvdt8aq8" x="261.1932402383676" y="124.61595253731802"/><use xmlns:xlink="http://www.w3.org/1999/xlink" xlink:href="#gSix8yvdt8aqe" x="151.36738525877686" y="42.25399757765052"/><use xmlns:xlink="http://www.w3.org/1999/xlink" xlink:href="#gSix8yvdt8aqc" x="17.553461061653316" y="189.28254880414838"/><use xmlns:xlink="http://www.w3.org/1999/xlink" xlink:href="#gSix8yvdt8aqc" x="273.5534610616533" y="189.28254880414838"/><use xmlns:xlink="http://www.w3.org/1999/xlink" xlink:href="#gSix8yvdt8aqe" x="171.38149153557205" y="143.09463883690003"/><use xmlns:xlink="http://www.w3.org/1999/xlink" xlink:href="#gSix8yvdt8aqb" x="41.02185753199383" y="176.94074008529202"/><use xmlns:xlink="http://www.w3.org/1999/xlink" xlink:href="#gSix8yvdt8aq6" x="230.67911159288943" y="213.22238918470916"/><use xmlns:xlink="http://www.w3.org/1999/xlink" xlink:href="#gSix8yvdt8aq6" x="-25.320888407110573" y="213.22238918470916"/><use xmlns:xlink="http://www.w3.org/1999/xlink" xlink:href="#gSix8yvdt8aqb" x="214.82902879405412" y="212.86083670481014"/><use xmlns:xlink="http://www.w3.org/1999/xlink" xlink:href="#gSix8yvdt8aq8" x="34.48094812613731" y="23.866662691995757"/><use xmlns:xlink="http://www.w3.org/1999/xlink" xlink:href="#gSix8yvdt8aq8" x="34.48094812613731" y="279.86666269199577"/><use xmlns:xlink="http://www.w3.org/1999/xlink" xlink:href="#gSix8yvdt8aqa" x="155.6805338436967" y="129.74853252384796"/><use xmlns:xlink="http://www.w3.org/1999/xlink" xlink:href="#gSix8yvdt8aqd" x="228.67723205093307" y="130.65670065132528"/><use xmlns:xlink="http://www.w3.org/1999/xlink" xlink:href="#gSix8yvdt8aqd" x="-27.32276794906693" y="130.65670065132528"/><use xmlns:xlink="http://www.w3.org/1999/xlink" xlink:href="#gSix8yvdt8aq5" x="227.66748529630442" y="118.51662519623795"/><use xmlns:xlink="http://www.w3.org/1999/xlink" xlink:href="#gSix8yvdt8aq5" x="-28.33251470369558" y="118.51662519623795"/><use xmlns:xlink="http://www.w3.org/1999/xlink" xlink:href="#gSix8yvdt8aq5" x="102.83844881233604" y="224.27704060764935"/><use xmlns:xlink="http://www.w3.org/1999/xlink" xlink:href="#gSix8yvdt8aq5" x="102.83844881233604" y="-31.722959392350646"/><use xmlns:xlink="http://www.w3.org/1999/xlink" xlink:href="#gSix8yvdt8aqe" x="107.98145235874999" y="164.60680674220845"/><use xmlns:xlink="http://www.w3.org/1999/xlink" xlink:href="#gSix8yvdt8aqb" x="229.43814934451171" y="235.94477697269528"/><use xmlns:xlink="http://www.w3.org/1999/xlink" xlink:href="#gSix8yvdt8aqb" x="-26.561850655488286" y="235.94477697269528"/><use xmlns:xlink="http://www.w3.org/1999/xlink" xlink:href="#gSix8yvdt8aqb" x="-26.561850655488286" y="-20.05522302730472"/><use xmlns:xlink="http://www.w3.org/1999/xlink" xlink:href="#gSix8yvdt8aqb" x="229.43814934451171" y="-20.05522302730472"/><use xmlns:xlink="http://www.w3.org/1999/xlink" xlink:href="#gSix8yvdt8aqb" x="-26.561850655488286" y="-20.05522302730472"/><use xmlns:xlink="http://www.w3.org/1999/xlink" xlink:href="#gSix8yvdt8aqe" x="36.15471889553244" y="116.87438492332225"/><use xmlns:xlink="http://www.w3.org/1999/xlink" xlink:href="#gSix8yvdt8aq6" x="93.11809980804126" y="163.60796930224188"/><use xmlns:xlink="http://www.w3.org/1999/xlink" xlink:href="#gSix8yvdt8aq7" x="43.02190483018675" y="55.197106064152244"/><use xmlns:xlink="http://www.w3.org/1999/xlink" xlink:href="#gSix8yvdt8aqd" x="171.76949737944338" y="203.02409207822078"/><use xmlns:xlink="http://www.w3.org/1999/xlink" xlink:href="#gSix8yvdt8aqc" x="66.98031810497056" y="3.360641663035408"/><use xmlns:xlink="http://www.w3.org/1999/xlink" xlink:href="#gSix8yvdt8aqc" x="66.98031810497056" y="259.3606416630354"/><use xmlns:xlink="http://www.w3.org/1999/xlink" xlink:href="#gSix8yvdt8aqa" x="59.11492708986516" y="191.15110333167678"/><use xmlns:xlink="http://www.w3.org/1999/xlink" xlink:href="#gSix8yvdt8aqa" x="101.17130359294633" y="7.391895439318527"/><use xmlns:xlink="http://www.w3.org/1999/xlink" xlink:href="#gSix8yvdt8aqa" x="101.17130359294633" y="263.39189543931855"/><use xmlns:xlink="http://www.w3.org/1999/xlink" xlink:href="#gSix8yvdt8aqb" x="254.94755909204088" y="216.57390344672507"/><use xmlns:xlink="http://www.w3.org/1999/xlink" xlink:href="#gSix8yvdt8aqb" x="-1.0524409079591237" y="216.57390344672507"/><use xmlns:xlink="http://www.w3.org/1999/xlink" xlink:href="#gSix8yvdt8aq8" x="102.69390733806594" y="79.89782489764521"/><use xmlns:xlink="http://www.w3.org/1999/xlink" xlink:href="#gSix8yvdt8aqa" x="69.42252878296894" y="174.20147329426953"/><use xmlns:xlink="http://www.w3.org/1999/xlink" xlink:href="#gSix8yvdt8aqg" x="112.17856505133649" y="230.73127331393226"/><use xmlns:xlink="http://www.w3.org/1999/xlink" xlink:href="#gSix8yvdt8aqg" x="112.17856505133649" y="-25.268726686067737"/><use xmlns:xlink="http://www.w3.org/1999/xlink" xlink:href="#gSix8yvdt8aqa" x="50.755256180060876" y="62.122075826051365"/><use xmlns:xlink="http://www.w3.org/1999/xlink" xlink:href="#gSix8yvdt8aqc" x="131.17173544828145" y="42.75709637183598"/><use xmlns:xlink="http://www.w3.org/1999/xlink" xlink:href="#gSix8yvdt8aq8" x="133.87468451023153" y="72.25608912707803"/><use xmlns:xlink="http://www.w3.org/1999/xlink" xlink:href="#gSix8yvdt8aq5" x="207.4332214177169" y="53.47799447763673"/><use xmlns:xlink="http://www.w3.org/1999/xlink" xlink:href="#gSix8yvdt8aqd" x="205.32273549160928" y="233.33786677521405"/><use xmlns:xlink="http://www.w3.org/1999/xlink" xlink:href="#gSix8yvdt8aqd" x="205.32273549160928" y="-22.662133224785947"/><use xmlns:xlink="http://www.w3.org/1999/xlink" xlink:href="#gSix8yvdt8aq5" x="8.028203950746235" y="171.5810198901035"/><use xmlns:xlink="http://www.w3.org/1999/xlink" xlink:href="#gSix8yvdt8aq5" x="264.0282039507462" y="171.5810198901035"/><use xmlns:xlink="http://www.w3.org/1999/xlink" xlink:href="#gSix8yvdt8aqg" x="96.56368729965031" y="239.71624192656097"/><use xmlns:xlink="http://www.w3.org/1999/xlink" xlink:href="#gSix8yvdt8aqg" x="96.56368729965031" y="-16.28375807343903"/><use xmlns:xlink="http://www.w3.org/1999/xlink" xlink:href="#gSix8yvdt8aq9" x="13.889831801135701" y="39.30608697229685"/><use xmlns:xlink="http://www.w3.org/1999/xlink" xlink:href="#gSix8yvdt8aq9" x="269.8898318011357" y="39.30608697229685"/><use xmlns:xlink="http://www.w3.org/1999/xlink" xlink:href="#gSix8yvdt8aq5" x="107.83623576638297" y="20.19357335894463"/><use xmlns:xlink="http://www.w3.org/1999/xlink" xlink:href="#gSix8yvdt8aq5" x="107.83623576638297" y="276.1935733589446"/><use xmlns:xlink="http://www.w3.org/1999/xlink" xlink:href="#gSix8yvdt8aqf" x="94.80394414765294" y="107.97991150492008"/><use xmlns:xlink="http://www.w3.org/1999/xlink" xlink:href="#gSix8yvdt8aqe" x="213.5308284626014" y="193.16497460152465"/><use xmlns:xlink="http://www.w3.org/1999/xlink" xlink:href="#gSix8yvdt8aq7" x="64.20451791642407" y="119.56292440489261"/><use xmlns:xlink="http://www.w3.org/1999/xlink" xlink:href="#gSix8yvdt8aq6" x="202.13908317138123" y="163.94885540337373"/><use xmlns:xlink="http://www.w3.org/1999/xlink" xlink:href="#gSix8yvdt8aqg" x="111.04440291997153" y="175.11622859276622"/><use xmlns:xlink="http://www.w3.org/1999/xlink" xlink:href="#gSix8yvdt8aqe" x="197.8529298736942" y="186.77459564243205"/><use xmlns:xlink="http://www.w3.org/1999/xlink" xlink:href="#gSix8yvdt8aq8" x="243.12583206205474" y="56.60525723311128"/><use xmlns:xlink="http://www.w3.org/1999/xlink" xlink:href="#gSix8yvdt8aq8" x="-12.87416793794526" y="56.60525723311128"/><use xmlns:xlink="http://www.w3.org/1999/xlink" xlink:href="#gSix8yvdt8aq6" x="8.34761112973825" y="58.900131309419706"/><use xmlns:xlink="http://www.w3.org/1999/xlink" xlink:href="#gSix8yvdt8aq6" x="264.34761112973825" y="58.900131309419706"/><use xmlns:xlink="http://www.w3.org/1999/xlink" xlink:href="#gSix8yvdt8aqd" x="148.00276164520335" y="213.55203388711774"/><use xmlns:xlink="http://www.w3.org/1999/xlink" xlink:href="#gSix8yvdt8aq8" x="216.64552700627627" y="7.195850949485748"/><use xmlns:xlink="http://www.w3.org/1999/xlink" xlink:href="#gSix8yvdt8aq8" x="216.64552700627627" y="263.19585094948576"/><use xmlns:xlink="http://www.w3.org/1999/xlink" xlink:href="#gSix8yvdt8aq8" x="115.05508773006167" y="80.21186857701709"/><use xmlns:xlink="http://www.w3.org/1999/xlink" xlink:href="#gSix8yvdt8aqd" x="145.1895132578098" y="117.30354546274148"/><use xmlns:xlink="http://www.w3.org/1999/xlink" xlink:href="#gSix8yvdt8aqc" x="95.48287296728347" y="199.68844481984556"/><use xmlns:xlink="http://www.w3.org/1999/xlink" xlink:href="#gSix8yvdt8aq9" x="13.104627509191427" y="181.50234442640533"/><use xmlns:xlink="http://www.w3.org/1999/xlink" xlink:href="#gSix8yvdt8aq9" x="269.1046275091914" y="181.50234442640533"/><use xmlns:xlink="http://www.w3.org/1999/xlink" xlink:href="#gSix8yvdt8aqa" x="221.70304287309563" y="202.21255879466023"/><use xmlns:xlink="http://www.w3.org/1999/xlink" xlink:href="#gSix8yvdt8aqc" x="188.56240470728287" y="192.2322159137927"/><use xmlns:xlink="http://www.w3.org/1999/xlink" xlink:href="#gSix8yvdt8aq9" x="115.27649481521097" y="94.72990083040762"/><use xmlns:xlink="http://www.w3.org/1999/xlink" xlink:href="#gSix8yvdt8aq7" x="244.1442547200946" y="68.72189598696575"/><use xmlns:xlink="http://www.w3.org/1999/xlink" xlink:href="#gSix8yvdt8aq7" x="-11.855745279905392" y="68.72189598696575"/><use xmlns:xlink="http://www.w3.org/1999/xlink" xlink:href="#gSix8yvdt8aq7" x="245.45306158879018" y="85.46112042167512"/><use xmlns:xlink="http://www.w3.org/1999/xlink" xlink:href="#gSix8yvdt8aq7" x="-10.546938411209823" y="85.46112042167512"/><use xmlns:xlink="http://www.w3.org/1999/xlink" xlink:href="#gSix8yvdt8aqd" x="147.72039353562482" y="151.43753718318132"/><use xmlns:xlink="http://www.w3.org/1999/xlink" xlink:href="#gSix8yvdt8aqc" x="164.27316520675618" y="149.55748158281966"/><use xmlns:xlink="http://www.w3.org/1999/xlink" xlink:href="#gSix8yvdt8aq5" x="248.08967877242614" y="173.80804495283962"/><use xmlns:xlink="http://www.w3.org/1999/xlink" xlink:href="#gSix8yvdt8aq5" x="-7.91032122757386" y="173.80804495283962"/><use xmlns:xlink="http://www.w3.org/1999/xlink" xlink:href="#gSix8yvdt8aq9" x="123.49168488861751" y="4.203925278816297"/><use xmlns:xlink="http://www.w3.org/1999/xlink" xlink:href="#gSix8yvdt8aq9" x="123.49168488861751" y="260.2039252788163"/><use xmlns:xlink="http://www.w3.org/1999/xlink" xlink:href="#gSix8yvdt8aq8" x="227.4611369622358" y="17.74195712606137"/><use xmlns:xlink="http://www.w3.org/1999/xlink" xlink:href="#gSix8yvdt8aq8" x="-28.5388630377642" y="17.74195712606137"/><use xmlns:xlink="http://www.w3.org/1999/xlink" xlink:href="#gSix8yvdt8aq8" x="-28.5388630377642" y="273.7419571260614"/><use xmlns:xlink="http://www.w3.org/1999/xlink" xlink:href="#gSix8yvdt8aq8" x="227.4611369622358" y="273.7419571260614"/><use xmlns:xlink="http://www.w3.org/1999/xlink" xlink:href="#gSix8yvdt8aq8" x="-28.5388630377642" y="273.7419571260614"/><use xmlns:xlink="http://www.w3.org/1999/xlink" xlink:href="#gSix8yvdt8aq8" x="85.4654070168721" y="116.30179738538885"/><use xmlns:xlink="http://www.w3.org/1999/xlink" xlink:href="#gSix8yvdt8aqe" x="6.530217994561002" y="137.95171014864738"/><use xmlns:xlink="http://www.w3.org/1999/xlink" xlink:href="#gSix8yvdt8aqe" x="262.530217994561" y="137.95171014864738"/><use xmlns:xlink="http://www.w3.org/1999/xlink" xlink:href="#gSix8yvdt8aqd" x="31.686913079529557" y="209.86731804172794"/><use xmlns:xlink="http://www.w3.org/1999/xlink" xlink:href="#gSix8yvdt8aqd" x="287.6869130795296" y="209.86731804172794"/><use xmlns:xlink="http://www.w3.org/1999/xlink" xlink:href="#gSix8yvdt8aqf" x="167.23913949287774" y="236.4007756493863"/><use xmlns:xlink="http://www.w3.org/1999/xlink" xlink:href="#gSix8yvdt8aqf" x="167.23913949287774" y="-19.599224350613696"/><use xmlns:xlink="http://www.w3.org/1999/xlink" xlink:href="#gSix8yvdt8aqf" x="69.32470892334449" y="208.66217758872332"/><use xmlns:xlink="http://www.w3.org/1999/xlink" xlink:href="#gSix8yvdt8aqg" x="38.89273722657735" y="10.44424381053132"/><use xmlns:xlink="http://www.w3.org/1999/xlink" xlink:href="#gSix8yvdt8aqg" x="38.89273722657735" y="266.4442438105313"/><use xmlns:xlink="http://www.w3.org/1999/xlink" xlink:href="#gSix8yvdt8aq6" x="25.318420699252442" y="126.27732613401825"/><use xmlns:xlink="http://www.w3.org/1999/xlink" xlink:href="#gSix8yvdt8aq6" x="281.31842069925244" y="126.27732613401825"/><use xmlns:xlink="http://www.w3.org/1999/xlink" xlink:href="#gSix8yvdt8aqb" x="76.62131720169195" y="70.78706841373234"/><use xmlns:xlink="http://www.w3.org/1999/xlink" xlink:href="#gSix8yvdt8aqf" x="219.1779919895893" y="107.65651742387662"/><use xmlns:xlink="http://www.w3.org/1999/xlink" xlink:href="#gSix8yvdt8aq6" x="243.8493649044704" y="141.9584471757524"/><use xmlns:xlink="http://www.w3.org/1999/xlink" xlink:href="#gSix8yvdt8aq6" x="-12.150635095529594" y="141.9584471757524"/><use xmlns:xlink="http://www.w3.org/1999/xlink" xlink:href="#gSix8yvdt8aqg" x="88.86995314572397" y="162.88645747628712"/><use xmlns:xlink="http://www.w3.org/1999/xlink" xlink:href="#gSix8yvdt8aqg" x="50.427612390029275" y="211.86801101910572"/><use xmlns:xlink="http://www.w3.org/1999/xlink" xlink:href="#gSix8yvdt8aq9" x="19.775141194044384" y="108.61684299959887"/><use xmlns:xlink="http://www.w3.org/1999/xlink" xlink:href="#gSix8yvdt8aq9" x="275.7751411940444" y="108.61684299959887"/><use xmlns:xlink="http://www.w3.org/1999/xlink" xlink:href="#gSix8yvdt8aqb" x="185.73238740378983" y="50.74771053769109"/><use xmlns:xlink="http://www.w3.org/1999/xlink" xlink:href="#gSix8yvdt8aq9" x="121.2595808809869" y="145.05019135450507"/><use xmlns:xlink="http://www.w3.org/1999/xlink" xlink:href="#gSix8yvdt8aq7" x="72.54046066155239" y="233.11137355811584"/><use xmlns:xlink="http://www.w3.org/1999/xlink" xlink:href="#gSix8yvdt8aq7" x="72.54046066155239" y="-22.888626441884156"/><use xmlns:xlink="http://www.w3.org/1999/xlink" xlink:href="#gSix8yvdt8aq7" x="192.9471241308029" y="1.7754182626681942"/><use xmlns:xlink="http://www.w3.org/1999/xlink" xlink:href="#gSix8yvdt8aq7" x="192.9471241308029" y="257.7754182626682"/><use xmlns:xlink="http://www.w3.org/1999/xlink" xlink:href="#gSix8yvdt8aqa" x="147.38606225762175" y="57.30409814862949"/><use xmlns:xlink="http://www.w3.org/1999/xlink" xlink:href="#gSix8yvdt8aq8" x="228.2057968949765" y="52.33817137828428"/><use xmlns:xlink="http://www.w3.org/1999/xlink" xlink:href="#gSix8yvdt8aq8" x="-27.794203105023513" y="52.33817137828428"/><use xmlns:xlink="http://www.w3.org/1999/xlink" xlink:href="#gSix8yvdt8aqd" x="208.83979967705085" y="11.470699694698174"/><use xmlns:xlink="http://www.w3.org/1999/xlink" xlink:href="#gSix8yvdt8aqd" x="208.83979967705085" y="267.47069969469817"/><use xmlns:xlink="http://www.w3.org/1999/xlink" xlink:href="#gSix8yvdt8aq8" x="18.638546881234223" y="207.23886170832515"/><use xmlns:xlink="http://www.w3.org/1999/xlink" xlink:href="#gSix8yvdt8aq8" x="274.6385468812342" y="207.23886170832515"/><use xmlns:xlink="http://www.w3.org/1999/xlink" xlink:href="#gSix8yvdt8aq6" x="110.31260007614223" y="147.66333579520648"/><use xmlns:xlink="http://www.w3.org/1999/xlink" xlink:href="#gSix8yvdt8aqg" x="61.35415373582373" y="220.46288612267136"/><use xmlns:xlink="http://www.w3.org/1999/xlink" xlink:href="#gSix8yvdt8aqe" x="71.30924960260957" y="16.818873331569762"/><use xmlns:xlink="http://www.w3.org/1999/xlink" xlink:href="#gSix8yvdt8aqe" x="71.30924960260957" y="272.81887333156976"/><use xmlns:xlink="http://www.w3.org/1999/xlink" xlink:href="#gSix8yvdt8aq5" x="43.04238592665275" y="66.15131431354534"/><use xmlns:xlink="http://www.w3.org/1999/xlink" xlink:href="#gSix8yvdt8aq8" x="177.1798170243625" y="152.09960579188183"/><use xmlns:xlink="http://www.w3.org/1999/xlink" xlink:href="#gSix8yvdt8aqe" x="246.78381277255866" y="164.16126300167232"/><use xmlns:xlink="http://www.w3.org/1999/xlink" xlink:href="#gSix8yvdt8aqe" x="-9.216187227441338" y="164.16126300167232"/><use xmlns:xlink="http://www.w3.org/1999/xlink" xlink:href="#gSix8yvdt8aqb" x="149.75142603233513" y="73.11762619106072"/><use xmlns:xlink="http://www.w3.org/1999/xlink" xlink:href="#gSix8yvdt8aq9" x="231.64145069761662" y="184.0866291674625"/><use xmlns:xlink="http://www.w3.org/1999/xlink" xlink:href="#gSix8yvdt8aq9" x="-24.35854930238338" y="184.0866291674625"/><use xmlns:xlink="http://www.w3.org/1999/xlink" xlink:href="#gSix8yvdt8aq9" x="8.683445511558572" y="103.72121568473287"/><use xmlns:xlink="http://www.w3.org/1999/xlink" xlink:href="#gSix8yvdt8aq9" x="264.68344551155855" y="103.72121568473287"/><use xmlns:xlink="http://www.w3.org/1999/xlink" xlink:href="#gSix8yvdt8aq7" x="35.62802821324459" y="227.84906560572156"/><use xmlns:xlink="http://www.w3.org/1999/xlink" xlink:href="#gSix8yvdt8aq7" x="35.62802821324459" y="-28.150934394278437"/><use xmlns:xlink="http://www.w3.org/1999/xlink" xlink:href="#gSix8yvdt8aq8" x="98.59593050399387" y="56.95337415454595"/><use xmlns:xlink="http://www.w3.org/1999/xlink" xlink:href="#gSix8yvdt8aq8" x="26.508947399149392" y="67.2591394222201"/><use xmlns:xlink="http://www.w3.org/1999/xlink" xlink:href="#gSix8yvdt8aq8" x="282.5089473991494" y="67.2591394222201"/><use xmlns:xlink="http://www.w3.org/1999/xlink" xlink:href="#gSix8yvdt8aqe" x="133.2223472731814" y="154.37247819684708"/><use xmlns:xlink="http://www.w3.org/1999/xlink" xlink:href="#gSix8yvdt8aq9" x="87.27526399971387" y="190.85253374511802"/><use xmlns:xlink="http://www.w3.org/1999/xlink" xlink:href="#gSix8yvdt8aqf" x="144.02043222585462" y="22.17430520109175"/><use xmlns:xlink="http://www.w3.org/1999/xlink" xlink:href="#gSix8yvdt8aqf" x="144.02043222585462" y="278.1743052010917"/><use xmlns:xlink="http://www.w3.org/1999/xlink" xlink:href="#gSix8yvdt8aqa" x="205.01498183516188" y="216.9598026496323"/><use xmlns:xlink="http://www.w3.org/1999/xlink" xlink:href="#gSix8yvdt8aqg" x="228.69953355014013" y="73.80797159457495"/><use xmlns:xlink="http://www.w3.org/1999/xlink" xlink:href="#gSix8yvdt8aqg" x="-27.30046644985987" y="73.80797159457495"/><use xmlns:xlink="http://www.w3.org/1999/xlink" xlink:href="#gSix8yvdt8aqg" x="57.59090409816198" y="84.81687651639764"/><use xmlns:xlink="http://www.w3.org/1999/xlink" xlink:href="#gSix8yvdt8aqf" x="1.0087611987423324" y="112.85577854456389"/><use xmlns:xlink="http://www.w3.org/1999/xlink" xlink:href="#gSix8yvdt8aqf" x="257.0087611987423" y="112.85577854456389"/><use xmlns:xlink="http://www.w3.org/1999/xlink" xlink:href="#gSix8yvdt8aq7" x="77.8618568394317" y="85.78730298601722"/><use xmlns:xlink="http://www.w3.org/1999/xlink" xlink:href="#gSix8yvdt8aqe" x="68.19975828835157" y="123.3608733145802"/><use xmlns:xlink="http://www.w3.org/1999/xlink" xlink:href="#gSix8yvdt8aq7" x="55.5292480296995" y="163.32445315965973"/><use xmlns:xlink="http://www.w3.org/1999/xlink" xlink:href="#gSix8yvdt8aqd" x="94.39645548108201" y="18.194691263023145"/><use xmlns:xlink="http://www.w3.org/1999/xlink" xlink:href="#gSix8yvdt8aqd" x="94.39645548108201" y="274.1946912630232"/><use xmlns:xlink="http://www.w3.org/1999/xlink" xlink:href="#gSix8yvdt8aq7" x="99.47141703529846" y="178.5076064163417"/><use xmlns:xlink="http://www.w3.org/1999/xlink" xlink:href="#gSix8yvdt8aq6" x="28.677628863274414" y="103.93217312880326"/><use xmlns:xlink="http://www.w3.org/1999/xlink" xlink:href="#gSix8yvdt8aq6" x="284.67762886327444" y="103.93217312880326"/><use xmlns:xlink="http://www.w3.org/1999/xlink" xlink:href="#gSix8yvdt8aqb" x="231.96073934275518" y="80.1913014002168"/><use xmlns:xlink="http://www.w3.org/1999/xlink" xlink:href="#gSix8yvdt8aqb" x="-24.039260657244824" y="80.1913014002168"/><use xmlns:xlink="http://www.w3.org/1999/xlink" xlink:href="#gSix8yvdt8aqa" x="187.89947441223833" y="203.22959643976307"/><use xmlns:xlink="http://www.w3.org/1999/xlink" xlink:href="#gSix8yvdt8aq7" x="152.53410209626003" y="11.071654427815401"/><use xmlns:xlink="http://www.w3.org/1999/xlink" xlink:href="#gSix8yvdt8aq7" x="152.53410209626003" y="267.0716544278154"/><use xmlns:xlink="http://www.w3.org/1999/xlink" xlink:href="#gSix8yvdt8aqb" x="205.45690383328272" y="82.20687239282431"/><use xmlns:xlink="http://www.w3.org/1999/xlink" xlink:href="#gSix8yvdt8aq9" x="132.84426479831617" y="235.93459012059873"/><use xmlns:xlink="http://www.w3.org/1999/xlink" xlink:href="#gSix8yvdt8aq9" x="132.84426479831617" y="-20.065409879401273"/><use xmlns:xlink="http://www.w3.org/1999/xlink" xlink:href="#gSix8yvdt8aqd" x="230.96897594720141" y="179.8131761114053"/><use xmlns:xlink="http://www.w3.org/1999/xlink" xlink:href="#gSix8yvdt8aqd" x="-25.031024052798585" y="179.8131761114053"/><use xmlns:xlink="http://www.w3.org/1999/xlink" xlink:href="#gSix8yvdt8aqa" x="214.08519839862967" y="99.1251162142593"/><use xmlns:xlink="http://www.w3.org/1999/xlink" xlink:href="#gSix8yvdt8aqd" x="52.727462707197304" y="98.22390410465911"/><use xmlns:xlink="http://www.w3.org/1999/xlink" xlink:href="#gSix8yvdt8aqg" x="97.19097403742101" y="248.89169129580628"/><use xmlns:xlink="http://www.w3.org/1999/xlink" xlink:href="#gSix8yvdt8aqg" x="97.19097403742101" y="-7.108308704193718"/><use xmlns:xlink="http://www.w3.org/1999/xlink" xlink:href="#gSix8yvdt8aqa" x="229.37056089317213" y="250.48921390625353"/><use xmlns:xlink="http://www.w3.org/1999/xlink" xlink:href="#gSix8yvdt8aqa" x="-26.629439106827874" y="250.48921390625353"/><use xmlns:xlink="http://www.w3.org/1999/xlink" xlink:href="#gSix8yvdt8aqa" x="-26.629439106827874" y="-5.510786093746475"/><use xmlns:xlink="http://www.w3.org/1999/xlink" xlink:href="#gSix8yvdt8aqa" x="229.37056089317213" y="-5.510786093746475"/><use xmlns:xlink="http://www.w3.org/1999/xlink" xlink:href="#gSix8yvdt8aqa" x="-26.629439106827874" y="-5.510786093746475"/><use xmlns:xlink="http://www.w3.org/1999/xlink" xlink:href="#gSix8yvdt8aq5" x="64.39087973263689" y="161.9816582133526"/><use xmlns:xlink="http://www.w3.org/1999/xlink" xlink:href="#gSix8yvdt8aqc" x="71.68584786791837" y="50.05504086836856"/><use xmlns:xlink="http://www.w3.org/1999/xlink" xlink:href="#gSix8yvdt8aqa" x="112.69516994118553" y="203.75220787485827"/><use xmlns:xlink="http://www.w3.org/1999/xlink" xlink:href="#gSix8yvdt8aqc" x="222.98180909341866" y="247.21382504209936"/><use xmlns:xlink="http://www.w3.org/1999/xlink" xlink:href="#gSix8yvdt8aqc" x="222.98180909341866" y="-8.786174957900641"/><use xmlns:xlink="http://www.w3.org/1999/xlink" xlink:href="#gSix8yvdt8aqf" x="201.15274873423755" y="117.7097395496429"/><use xmlns:xlink="http://www.w3.org/1999/xlink" xlink:href="#gSix8yvdt8aq6" x="169.6453260217819" y="67.33542638821628"/><use xmlns:xlink="http://www.w3.org/1999/xlink" xlink:href="#gSix8yvdt8aqc" x="178.63640658208084" y="35.10907061423049"/><use xmlns:xlink="http://www.w3.org/1999/xlink" xlink:href="#gSix8yvdt8aqc" x="51.81887560921889" y="38.84396332827646"/><use xmlns:xlink="http://www.w3.org/1999/xlink" xlink:href="#gSix8yvdt8aq8" x="209.91912749531718" y="19.090369162272744"/><use xmlns:xlink="http://www.w3.org/1999/xlink" xlink:href="#gSix8yvdt8aq8" x="209.91912749531718" y="275.09036916227274"/><use xmlns:xlink="http://www.w3.org/1999/xlink" xlink:href="#gSix8yvdt8aq7" x="253.3300560528515" y="233.49488549897467"/><use xmlns:xlink="http://www.w3.org/1999/xlink" xlink:href="#gSix8yvdt8aq7" x="-2.6699439471485107" y="233.49488549897467"/><use xmlns:xlink="http://www.w3.org/1999/xlink" xlink:href="#gSix8yvdt8aq7" x="-2.6699439471485107" y="-22.505114501025332"/><use xmlns:xlink="http://www.w3.org/1999/xlink" xlink:href="#gSix8yvdt8aq7" x="253.3300560528515" y="-22.505114501025332"/><use xmlns:xlink="http://www.w3.org/1999/xlink" xlink:href="#gSix8yvdt8aq7" x="-2.6699439471485107" y="-22.505114501025332"/><use xmlns:xlink="http://www.w3.org/1999/xlink" xlink:href="#gSix8yvdt8aqf" x="78.30317176774857" y="146.08832463240805"/><use xmlns:xlink="http://www.w3.org/1999/xlink" xlink:href="#gSix8yvdt8aq6" x="218.1669858482158" y="85.45870745534212"/><use xmlns:xlink="http://www.w3.org/1999/xlink" xlink:href="#gSix8yvdt8aqg" x="85.38238412263021" y="239.4724535599806"/><use xmlns:xlink="http://www.w3.org/1999/xlink" xlink:href="#gSix8yvdt8aqg" x="85.38238412263021" y="-16.527546440019393"/><use xmlns:xlink="http://www.w3.org/1999/xlink" xlink:href="#gSix8yvdt8aq8" x="125.58195558274035" y="86.1768072705592"/><use xmlns:xlink="http://www.w3.org/1999/xlink" xlink:href="#gSix8yvdt8aq9" x="28.067738298525708" y="141.36387021403587"/><use xmlns:xlink="http://www.w3.org/1999/xlink" xlink:href="#gSix8yvdt8aq9" x="284.0677382985257" y="141.36387021403587"/><use xmlns:xlink="http://www.w3.org/1999/xlink" xlink:href="#gSix8yvdt8aq8" x="253.86972409792645" y="103.00935526449138"/><use xmlns:xlink="http://www.w3.org/1999/xlink" xlink:href="#gSix8yvdt8aq8" x="-2.1302759020735493" y="103.00935526449138"/><use xmlns:xlink="http://www.w3.org/1999/xlink" xlink:href="#gSix8yvdt8aqe" x="147.04148393632676" y="77.87592735655132"/><use xmlns:xlink="http://www.w3.org/1999/xlink" xlink:href="#gSix8yvdt8aq8" x="131.09793063032606" y="99.15765242649347"/><use xmlns:xlink="http://www.w3.org/1999/xlink" xlink:href="#gSix8yvdt8aqg" x="18.686766347990392" y="82.47479974431587"/><use xmlns:xlink="http://www.w3.org/1999/xlink" xlink:href="#gSix8yvdt8aqg" x="274.6867663479904" y="82.47479974431587"/><use xmlns:xlink="http://www.w3.org/1999/xlink" xlink:href="#gSix8yvdt8aqf" x="94.29634926059211" y="31.01556035938924"/><use xmlns:xlink="http://www.w3.org/1999/xlink" xlink:href="#gSix8yvdt8aqf" x="94.29634926059211" y="287.01556035938927"/><use xmlns:xlink="http://www.w3.org/1999/xlink" xlink:href="#gSix8yvdt8aq5" x="86.79483511673483" y="39.67449829770234"/><use xmlns:xlink="http://www.w3.org/1999/xlink" xlink:href="#gSix8yvdt8aqg" x="181.67065497248402" y="81.48309226685745"/><use xmlns:xlink="http://www.w3.org/1999/xlink" xlink:href="#gSix8yvdt8aq7" x="55.991738721198395" y="17.893182224332282"/><use xmlns:xlink="http://www.w3.org/1999/xlink" xlink:href="#gSix8yvdt8aq7" x="55.991738721198395" y="273.8931822243323"/><use xmlns:xlink="http://www.w3.org/1999/xlink" xlink:href="#gSix8yvdt8aq7" x="216.43240060296858" y="170.85164308645304"/><use xmlns:xlink="http://www.w3.org/1999/xlink" xlink:href="#gSix8yvdt8aq6" x="185.18995347895276" y="225.10626933520277"/><use xmlns:xlink="http://www.w3.org/1999/xlink" xlink:href="#gSix8yvdt8aq6" x="185.18995347895276" y="-30.893730664797232"/><use xmlns:xlink="http://www.w3.org/1999/xlink" xlink:href="#gSix8yvdt8aq6" x="184.56230890157582" y="115.74967249147474"/><use xmlns:xlink="http://www.w3.org/1999/xlink" xlink:href="#gSix8yvdt8aq8" x="157.55995479741242" y="200.55117373833727"/><use xmlns:xlink="http://www.w3.org/1999/xlink" xlink:href="#gSix8yvdt8aq7" x="162.19937124497403" y="162.7374070024158"/><use xmlns:xlink="http://www.w3.org/1999/xlink" xlink:href="#gSix8yvdt8aq9" x="220.6496758541645" y="144.52390891009603"/><use xmlns:xlink="http://www.w3.org/1999/xlink" xlink:href="#gSix8yvdt8aq7" x="172.53541912057125" y="46.4951580496805"/><use xmlns:xlink="http://www.w3.org/1999/xlink" xlink:href="#gSix8yvdt8aqe" x="173.10654154173372" y="190.15958293260059"/><use xmlns:xlink="http://www.w3.org/1999/xlink" xlink:href="#gSix8yvdt8aqc" x="187.7048064241929" y="32.39500563158756"/><use xmlns:xlink="http://www.w3.org/1999/xlink" xlink:href="#gSix8yvdt8aq8" x="122.35874009945479" y="48.61252005632993"/><use xmlns:xlink="http://www.w3.org/1999/xlink" xlink:href="#gSix8yvdt8aqc" x="177.75550646374984" y="166.9118129534105"/><use xmlns:xlink="http://www.w3.org/1999/xlink" xlink:href="#gSix8yvdt8aqb" x="69.33634991305544" y="66.8773959416168"/><use xmlns:xlink="http://www.w3.org/1999/xlink" xlink:href="#gSix8yvdt8aqg" x="113.82772592211195" y="221.0186311388499"/><use xmlns:xlink="http://www.w3.org/1999/xlink" xlink:href="#gSix8yvdt8aq9" x="133.27717444869845" y="212.4652406875044"/><use xmlns:xlink="http://www.w3.org/1999/xlink" xlink:href="#gSix8yvdt8aqd" x="254.55400189530818" y="244.17145290151183"/><use xmlns:xlink="http://www.w3.org/1999/xlink" xlink:href="#gSix8yvdt8aqd" x="-1.4459981046918244" y="244.17145290151183"/><use xmlns:xlink="http://www.w3.org/1999/xlink" xlink:href="#gSix8yvdt8aqd" x="-1.4459981046918244" y="-11.828547098488173"/><use xmlns:xlink="http://www.w3.org/1999/xlink" xlink:href="#gSix8yvdt8aqd" x="254.55400189530818" y="-11.828547098488173"/><use xmlns:xlink="http://www.w3.org/1999/xlink" xlink:href="#gSix8yvdt8aqd" x="-1.4459981046918244" y="-11.828547098488173"/><use xmlns:xlink="http://www.w3.org/1999/xlink" xlink:href="#gSix8yvdt8aqd" x="19.411701553267466" y="50.74305809573678"/><use xmlns:xlink="http://www.w3.org/1999/xlink" xlink:href="#gSix8yvdt8aqd" x="275.41170155326745" y="50.74305809573678"/><use xmlns:xlink="http://www.w3.org/1999/xlink" xlink:href="#gSix8yvdt8aqa" x="134.48931579365058" y="28.828342070704398"/><use xmlns:xlink="http://www.w3.org/1999/xlink" xlink:href="#gSix8yvdt8aqa" x="134.48931579365058" y="284.8283420707044"/><use xmlns:xlink="http://www.w3.org/1999/xlink" xlink:href="#gSix8yvdt8aqf" x="216.12440840731986" y="228.9829709741792"/><use xmlns:xlink="http://www.w3.org/1999/xlink" xlink:href="#gSix8yvdt8aqf" x="216.12440840731986" y="-27.01702902582079"/><use xmlns:xlink="http://www.w3.org/1999/xlink" xlink:href="#gSix8yvdt8aq7" x="114.19727470398998" y="38.697494983828996"/><use xmlns:xlink="http://www.w3.org/1999/xlink" xlink:href="#gSix8yvdt8aqd" x="183.08673125632987" y="233.40891650984054"/><use xmlns:xlink="http://www.w3.org/1999/xlink" xlink:href="#gSix8yvdt8aqd" x="183.08673125632987" y="-22.591083490159463"/><use xmlns:xlink="http://www.w3.org/1999/xlink" xlink:href="#gSix8yvdt8aqd" x="93.87462017200605" y="127.84162995754201"/><use xmlns:xlink="http://www.w3.org/1999/xlink" xlink:href="#gSix8yvdt8aqg" x="9.474351320057849" y="215.73466969235156"/><use xmlns:xlink="http://www.w3.org/1999/xlink" xlink:href="#gSix8yvdt8aqg" x="265.47435132005785" y="215.73466969235156"/><use xmlns:xlink="http://www.w3.org/1999/xlink" xlink:href="#gSix8yvdt8aq9" x="122.95149044609252" y="172.92616733666145"/><use xmlns:xlink="http://www.w3.org/1999/xlink" xlink:href="#gSix8yvdt8aq8" x="130.80966203393137" y="118.21982002678462"/><use xmlns:xlink="http://www.w3.org/1999/xlink" xlink:href="#gSix8yvdt8aq8" x="140.94606354216418" y="243.1813732075217"/><use xmlns:xlink="http://www.w3.org/1999/xlink" xlink:href="#gSix8yvdt8aq8" x="140.94606354216418" y="-12.818626792478312"/><use xmlns:xlink="http://www.w3.org/1999/xlink" xlink:href="#gSix8yvdt8aq8" x="154.65136322687366" y="93.67521978867036"/><use xmlns:xlink="http://www.w3.org/1999/xlink" xlink:href="#gSix8yvdt8aq8" x="64.50672280325318" y="140.16354905349277"/><use xmlns:xlink="http://www.w3.org/1999/xlink" xlink:href="#gSix8yvdt8aqb" x="33.986802148229614" y="37.69149434688092"/><use xmlns:xlink="http://www.w3.org/1999/xlink" xlink:href="#gSix8yvdt8aq7" x="215.53948413112136" y="162.04497075365774"/><use xmlns:xlink="http://www.w3.org/1999/xlink" xlink:href="#gSix8yvdt8aq9" x="151.39461111662695" y="24.764525026301747"/><use xmlns:xlink="http://www.w3.org/1999/xlink" xlink:href="#gSix8yvdt8aq9" x="151.39461111662695" y="280.7645250263017"/><use xmlns:xlink="http://www.w3.org/1999/xlink" xlink:href="#gSix8yvdt8aq8" x="215.21872400992547" y="73.87728586624887"/><use xmlns:xlink="http://www.w3.org/1999/xlink" xlink:href="#gSix8yvdt8aq7" x="159.86501158051018" y="66.05722164183119"/></g>
			<desc>Created with Snap</desc></svg>