<?xml version="1.0" encoding="UTF-8" standalone="no"?>
<svg
   xmlns:dc="http://purl.org/dc/elements/1.1/"
   xmlns:cc="http://creativecommons.org/ns#"
   xmlns:rdf="http://www.w3.org/1999/02/22-rdf-syntax-ns#"
   xmlns:svg="http://www.w3.org/2000/svg"
   xmlns="http://www.w3.org/2000/svg"
   xml:space="preserve"
   viewBox="0 0 580 580"
   height="580px"
   width="580px"
   y="0px"
   x="0px"
   id="svg2"
   version="1.1"><metadata
     id="metadata7"><rdf:RDF><cc:Work
         rdf:about=""><dc:format>image/svg+xml</dc:format><dc:type
           rdf:resource="http://purl.org/dc/dcmitype/StillImage" /><dc:title></dc:title></cc:Work></rdf:RDF></metadata><defs
     id="defs4" /><g
     transform="translate(68.799779,58.552307)"
     id="g1970"><path
       d="   M223.965,223.779c-0.748-0.013-1.308,0.816-1.131,1.516c-0.006,1.395,0.016,2.658-0.012,4.053c-0.507,0.424-1.143,0.65-1.668,1.05   c-1.551,0.968-3.152,1.868-4.668,2.886c-0.309,0.598-0.073,1.282-0.151,1.917c0.066,0.346,0.532,0.446,0.792,0.249   c1.929-0.597,3.825-1.295,5.762-1.864c-0.008,0.736,0.031,1.474,0.01,2.211c-0.017,0.225,0.021,0.474-0.047,0.684   c-0.43,0.482-1.146,0.698-1.418,1.315c-0.089,0.401-0.014,0.819-0.039,1.226c0.032,0.285,0.336,0.546,0.621,0.412   c0.563-0.18,1.136-0.331,1.688-0.533c0.293-0.106,0.607-0.067,0.886,0.055c0.622,0.189,1.244,0.485,1.902,0.477   c0.317-0.148,0.266-0.556,0.234-0.841c0.057-0.421,0.068-0.962-0.335-1.221c-0.381-0.307-0.797-0.577-1.15-0.919   c-0.023-0.953-0.053-1.951,0.007-2.877c0.743,0.255,1.501,0.464,2.242,0.727c1.312,0.433,2.615,0.908,3.954,1.248   c0.336-0.057,0.415-0.488,0.319-0.768c-0.012-0.491,0.138-1.04-0.139-1.483c-1.134-0.817-2.39-1.443-3.563-2.199   c-0.948-0.569-1.896-1.14-2.842-1.712c-0.107-0.613,0.029-1.242-0.037-1.86c-0.004-1.064,0.079-2.007-0.094-3.062   C224.896,224.036,224.431,223.759,223.965,223.779z"
       stroke-linejoin="round"
       stroke-width="0.66"
       stroke="#0071BC"
       fill="none"
       id="path1972" /></g></svg>