<?xml version="1.0" encoding="UTF-8" standalone="no"?>
<svg
   xmlns:dc="http://purl.org/dc/elements/1.1/"
   xmlns:cc="http://creativecommons.org/ns#"
   xmlns:rdf="http://www.w3.org/1999/02/22-rdf-syntax-ns#"
   xmlns:svg="http://www.w3.org/2000/svg"
   xmlns="http://www.w3.org/2000/svg"
   xml:space="preserve"
   enable-background="new 0 0 580 580"
   viewBox="0 0 580 580"
   height="580px"
   width="580px"
   y="0px"
   x="0px"
   id="svg2"
   version="1.1">
<g
     transform="matrix(1.0014414,0,0,1.0543874,-15.580879,-16.459021)"
     id="g7010"><path
       d="   M308.672,283.257h1.135v3.746h-1.135V283.257z"
       stroke-linejoin="round"
       stroke-linecap="round"
       stroke-width="0.459"
       stroke="#93278F"
       fill="#93278F"
       id="rect3771" /><path
       d="   M307.575,287.559c-0.05-0.285,1.205-0.88,1.67-0.881c0.465,0,1.672,0.675,1.761,0.881v9.509c-0.86,0.446-2.938,0.359-3.432,0   V287.559L307.575,287.559z"
       stroke-linejoin="round"
       stroke-linecap="round"
       stroke-width="1.3872"
       stroke="#93278F"
       fill="#93278F"
       id="path6978" /></g><path
     d="M301.638,293.224v3.679"
     stroke-linecap="round"
     stroke-width="0.72"
     stroke="#93278F"
     fill="none"
     id="path3845" /><g
     transform="matrix(1.1990081,0,0,1.2591238,-72.990402,-108.62601)"
     id="g4243"><path
       d="   M310.774,316.614c-0.001,0.039-0.002,0.078-0.002,0.117c0,1.558,0.767,2.82,1.714,2.82s1.714-1.262,1.714-2.82   c0-0.039,0-0.078-0.002-0.117C312.935,316.305,311.558,316.41,310.774,316.614L310.774,316.614L310.774,316.614z"
       enable-background="new    "
       stroke-linejoin="round"
       stroke-linecap="round"
       stroke-width="0.2439"
       stroke="#93278F"
       fill="#93278F"
       opacity="0.75"
       id="path3840-8" /><path
       d="M310.762,316.63   c-0.001,0.039-0.002,0.078-0.002,0.117c0,1.558,0.767,2.82,1.714,2.82c0.946,0,1.714-1.262,1.714-2.82   c0-0.039-0.001-0.078-0.002-0.117C313.23,316.928,312.21,317.121,310.762,316.63L310.762,316.63L310.762,316.63z"
       stroke-width="0.03"
       stroke="#93278F"
       fill="#93278F"
       id="path3840" /></g><g
     transform="matrix(25.818296,0,0,25.818296,-7603.868,-1626.0059)"
     id="flowRoot6831"><path
       d="M306.117,73.922c-0.03,0-0.05,0.023-0.05,0.063c0,0.04,0.019,0.063,0.05,0.063   c0.031,0,0.05-0.024,0.05-0.063C306.167,73.946,306.147,73.922,306.117,73.922 M306.243,73.926l-0.125,0.201h0.021l0.125-0.201   H306.243 M306.116,73.936c0.013,0,0.021,0.016,0.021,0.049c0,0.033-0.007,0.05-0.021,0.05c-0.014,0-0.02-0.017-0.02-0.05   C306.096,73.952,306.103,73.936,306.116,73.936 M306.265,74.005c-0.03,0-0.05,0.023-0.05,0.063c0,0.04,0.02,0.063,0.05,0.063   c0.031,0,0.05-0.023,0.05-0.063C306.315,74.029,306.295,74.005,306.265,74.005 M306.264,74.018c0.013,0,0.021,0.017,0.021,0.05   c0,0.033-0.007,0.049-0.021,0.049c-0.014,0-0.021-0.017-0.021-0.049S306.251,74.018,306.264,74.018"
       fill="#93278F"
       id="path6840" /></g></svg>
